<svg width="70" height="71" viewBox="0 0 70 71" fill="none" xmlns="http://www.w3.org/2000/svg">
<g id="dresser_5293323 1">
<g id="Group">
<path id="Vector" d="M13.091 41.6691H11.0343V39.7967H19.9552H22.6194H47.3753H50.0395H58.9604V41.6691H56.9089H53.9209H33.1821H13.091ZM59.5574 38.6131H50.6313V17.5519C50.6313 8.93179 43.6201 1.92061 35 1.92061C26.3798 1.92061 19.3686 8.93179 19.3686 17.5519V38.6131H10.4425C10.1179 38.6131 9.85072 38.8803 9.85072 39.2049V42.2609C9.85072 42.5855 10.1179 42.8527 10.4425 42.8527H12.4992V65.0161V68.5997C12.4992 68.9243 12.7664 69.1915 13.091 69.1915H16.0791C16.4037 69.1915 16.6709 68.9243 16.6709 68.5997V65.6079H29.6022V68.5997C29.6022 68.9243 29.8694 69.1915 30.194 69.1915H33.1821C33.5067 69.1915 33.7739 68.9243 33.7739 68.5997V65.0161V42.8527H53.3291V68.5945C53.3291 68.9191 53.5962 69.1863 53.9209 69.1863H56.9089C57.2336 69.1863 57.5007 68.9191 57.5007 68.5945V42.8527H59.5574C59.8821 42.8527 60.1492 42.5855 60.1492 42.2609V39.2049C60.1492 38.8803 59.8821 38.6131 59.5574 38.6131ZM20.5522 17.5519C20.5522 9.58629 27.0343 3.10419 35 3.10419C42.9656 3.10419 49.4477 9.58629 49.4477 17.5519V38.6131H47.9671V17.5519C47.9671 10.405 42.1523 4.58478 35 4.58478C27.8477 4.58478 22.0328 10.3997 22.0328 17.5519V38.6131H20.5522V17.5519ZM46.7836 38.6131H23.2164V17.5519C23.2164 11.0542 28.5022 5.76837 35 5.76837C41.4977 5.76837 46.7836 11.0542 46.7836 17.5519V38.6131ZM15.4873 68.0027H13.6828V65.6027H15.4873V68.0027ZM32.5903 68.0027H30.7858V65.6027H32.5903V68.0027ZM32.5903 64.4191H30.194H16.0791H13.6828V42.8527H32.5903V64.4191ZM56.3171 68.0027H54.5127V42.8527H56.3171V68.0027Z" fill="black" stroke="black" stroke-width="0.4"/>
<path id="Vector_2" d="M15.4835 62.8393H30.7947C31.1194 62.8393 31.3865 62.5721 31.3865 62.2475V45.0244C31.3865 44.6997 31.1194 44.4326 30.7947 44.4326H15.4835C15.1589 44.4326 14.8917 44.6997 14.8917 45.0244V62.2527C14.8917 62.5791 15.1554 62.8393 15.4835 62.8393ZM16.0753 61.6557V54.2251H30.2029V61.6557H16.0753ZM30.2029 45.6162V53.0468H16.0753V45.6162H30.2029Z" fill="black" stroke="black" stroke-width="0.4"/>
<path id="Vector_3" d="M22.2067 49.9206H24.0716C24.3962 49.9206 24.6634 49.6534 24.6634 49.3288C24.6634 49.0042 24.3962 48.737 24.0716 48.737H22.2067C21.882 48.737 21.6149 49.0042 21.6149 49.3288C21.6149 49.6517 21.8751 49.9206 22.2067 49.9206Z" fill="black" stroke="black" stroke-width="0.4"/>
<path id="Vector_4" d="M24.0716 57.3513H22.2067C21.882 57.3513 21.6149 57.6184 21.6149 57.9431C21.6149 58.2677 21.882 58.5349 22.2067 58.5349H24.0716C24.3962 58.5349 24.6634 58.2677 24.6634 57.9431C24.6634 57.6184 24.3962 57.3513 24.0716 57.3513Z" fill="black" stroke="black" stroke-width="0.4"/>
<path id="Vector_5" d="M32.378 15.3268C32.6076 15.0972 32.6076 14.7199 32.378 14.4903C32.1484 14.2607 31.771 14.2607 31.5414 14.4903L28.078 17.9537C27.8484 18.1833 27.8484 18.5607 28.078 18.7903C28.1958 18.9081 28.3468 18.9638 28.4963 18.9638C28.6457 18.9638 28.7967 18.9081 28.9145 18.7903L32.378 15.3268Z" fill="black" stroke="black" stroke-width="0.4"/>
<path id="Vector_6" d="M28.5795 20.994L28.5794 20.9941C28.3498 21.2237 28.3498 21.601 28.5794 21.8306C28.6973 21.9485 28.8483 22.0041 28.9977 22.0041C29.1472 22.0041 29.2982 21.9485 29.416 21.8306L35.4182 15.8284C35.6478 15.5988 35.6478 15.2214 35.4182 14.9918C35.1887 14.7623 34.8105 14.7618 34.5806 14.9981L28.5795 20.994Z" fill="black" stroke="black" stroke-width="0.4"/>
<path id="Vector_7" d="M37.8787 68.6625L37.8788 68.6618L38.6493 61.1154H48.4537L49.2242 68.6618L49.2242 68.6625C49.2559 68.9634 49.5094 69.1915 49.8149 69.1915H51.5492C51.8739 69.1915 52.141 68.9244 52.141 68.5997V55.5871V53.1057C52.141 50.8691 50.3224 49.0505 48.0858 49.0505H39.0172C36.7806 49.0505 34.9619 50.8691 34.9619 53.1057V55.5871V68.5997C34.9619 68.9244 35.2291 69.1915 35.5537 69.1915H37.288C37.5866 69.1915 37.8469 68.965 37.8787 68.6625ZM38.6201 54.99H36.1455V53.6923H50.9522V54.99H48.4828H38.6201ZM37.9651 56.1736L36.7574 68.0027H36.1455V56.1736H37.9651ZM47.9522 56.1736L48.3345 59.9266H38.7736L39.156 56.1736H47.9522ZM50.9574 68.0027H50.3455L49.1379 56.1736H50.9574V68.0027ZM36.2081 52.5139C36.4816 51.2131 37.6361 50.2341 39.0172 50.2341H48.0858C49.4669 50.2341 50.6214 51.2131 50.8949 52.5139H36.2081Z" fill="black" stroke="black" stroke-width="0.4"/>
</g>
</g>
</svg>
