<svg width="60" height="61" viewBox="0 0 60 61" fill="none" xmlns="http://www.w3.org/2000/svg">
<g id="Light 1" clip-path="url(#clip0_666_123)">
<g id="Group">
<g id="Group_2">
<g id="Group_3">
<path id="Vector" d="M58.9998 50.44C58.9998 37.9945 49.9054 27.6749 38 25.7602V25.4402C38 22.0832 35.9313 19.2109 33 18.0239V0.439941H27V18.0239C24.0687 19.2109 22 22.0832 22 25.4402V25.7602C10.0945 27.6749 1.00018 37.9944 1.00018 50.44V51.44H20.05C20.5518 56.4931 24.8146 60.4399 29.9999 60.4399C35.1853 60.4399 39.4482 56.4931 39.9499 51.44H58.9997L58.9998 50.44ZM29 2.43995H31V17.4399H29V2.43995ZM24 25.4402C24 22.1265 26.6863 19.4402 30.0001 19.4402C33.3138 19.4402 36.0001 22.1264 36.0001 25.4402H34.0001H26.0001H24ZM30.0001 58.4399C25.9205 58.4399 22.554 55.3861 22.062 51.44H37.9381C37.446 55.3861 34.0797 58.4399 30.0001 58.4399ZM40 49.44H20H3.02151C3.54501 37.2013 13.6325 27.4401 26.0001 27.4401H34.0001C46.3676 27.4401 56.4551 37.2012 56.9786 49.44H40Z" fill="black"/>
<path id="Vector_2" d="M26 29.4399C15.9858 29.4399 7.39921 36.5381 5.4222 46.2402C5.31188 46.7814 5.6612 47.3095 6.20245 47.4197C6.74359 47.53 7.27173 47.1807 7.38194 46.6395C9.17011 37.8641 16.9414 31.4398 26 31.4398C26.5523 31.4398 26.9999 30.9921 26.9999 30.4399C26.9999 29.8877 26.5522 29.4399 26 29.4399Z" fill="black"/>
</g>
</g>
</g>
</g>
<defs>
<clipPath id="clip0_666_123">
<rect width="60" height="60" fill="white" transform="translate(0 0.439941)"/>
</clipPath>
</defs>
</svg>
