<svg width="60" height="60" viewBox="0 0 60 60" fill="none" xmlns="http://www.w3.org/2000/svg">
<g id="dressing-room_18195209 1" clip-path="url(#clip0_666_50)">
<g id="Layer_x0020_1">
<path id="Vector" d="M20.3666 57.7776H20.4666L20.4666 57.6776L20.4667 48.3337C20.4667 47.858 20.0812 47.4723 19.6054 47.4723H0.776778C0.301058 47.4723 -0.0846191 47.8579 -0.0846191 48.3337C-0.0846191 48.8094 0.301082 49.1949 0.776778 49.1949H18.7439V57.6776V57.7776H18.8439H20.3666Z" fill="black" stroke="black" stroke-width="0.2"/>
<path id="Vector_2" d="M0.776717 49.1949H19.6054C20.0811 49.1949 20.4666 48.8094 20.4666 48.3337V38.9895C20.4666 38.5138 20.0811 38.1283 19.6054 38.1283H0.776717C0.30102 38.1283 -0.0846802 38.5138 -0.0846802 38.9895V48.3337C-0.0846802 48.8094 0.301021 49.1949 0.776717 49.1949ZM18.744 39.8509V47.4723H1.63808V39.8509H18.744Z" fill="black" stroke="black" stroke-width="0.2"/>
<path id="Vector_3" d="M1.48009 58.5393H58.5203C59.3833 58.5393 60.0848 57.8375 60.0848 56.9748V3.02542C60.0848 2.1627 59.3831 1.46104 58.5203 1.46104H1.48009C0.617384 1.46104 -0.084436 2.16269 -0.084436 3.02542V56.9748C-0.084436 57.8377 0.617236 58.5393 1.48009 58.5393ZM58.3622 3.18355V56.8167H1.63822V3.18355H58.3622Z" fill="black" stroke="black" stroke-width="0.2"/>
<g id="Group">
<path id="Vector_4" d="M19.6053 52.2871H59.2233C59.699 52.2871 60.0847 51.9016 60.0847 51.4256V2.32219C60.0847 1.84632 59.699 1.46079 59.2233 1.46079H19.6053C19.1296 1.46079 18.7439 1.84632 18.7439 2.32219V51.4257C18.7439 51.9016 19.1296 52.2871 19.6053 52.2871ZM58.362 3.18343V50.5645H20.4666V3.18343H58.362Z" fill="black" stroke="black" stroke-width="0.2"/>
<path id="Vector_5" d="M19.6053 58.5393H59.2233C59.699 58.5393 60.0847 58.1537 60.0847 57.6778V2.32219C60.0847 1.84632 59.699 1.46079 59.2233 1.46079H19.6053C19.1296 1.46079 18.7439 1.84632 18.7439 2.32219V57.6779C18.7439 58.1536 19.1296 58.5393 19.6053 58.5393ZM58.362 3.18343V56.8167H20.4666V3.18343H58.362Z" fill="black" stroke="black" stroke-width="0.2"/>
<path id="Vector_6" d="M38.5533 51.4256C38.5533 51.9015 38.9388 52.287 39.4146 52.287C39.8903 52.287 40.276 51.9015 40.276 51.4255V2.32219C40.276 1.84633 39.8904 1.46079 39.4146 1.46079C38.9388 1.46079 38.5533 1.84634 38.5533 2.32219V51.4256Z" fill="black" stroke="black" stroke-width="0.2"/>
<path id="Vector_7" d="M19.6053 10.0616H59.2233C59.699 10.0616 60.0847 9.67611 60.0847 9.20036C60.0847 8.72449 59.699 8.33896 59.2233 8.33896H19.6053C19.1296 8.33896 18.7439 8.72449 18.7439 9.20036C18.7439 9.67611 19.1296 10.0616 19.6053 10.0616Z" fill="black" stroke="black" stroke-width="0.2"/>
<path id="Vector_8" d="M54.6847 20.5213H44.9872C43.5436 20.5213 42.3692 19.3471 42.3692 17.9034C42.3692 17.4838 42.473 16.9889 42.8246 16.522C43.1761 16.0554 43.7684 15.6259 44.7295 15.3245L49.5084 13.8255L49.5085 13.8255L49.5384 13.9209L54.6847 20.5213ZM54.6847 20.5213C56.1283 20.5213 57.3027 19.3471 57.3028 17.9029C57.3028 17.4791 57.1989 16.9799 56.8463 16.5117C56.4938 16.0438 55.8997 15.6161 54.9358 15.3225C54.9358 15.3225 54.9358 15.3225 54.9358 15.3225L50.0175 13.8235M54.6847 20.5213L50.0175 13.8235M50.0175 13.8235L50.0174 13.8235L50.0175 13.8235ZM45.245 16.9684L45.245 16.9684L49.7697 15.549L54.4335 16.9704L54.4335 16.9704C55.0321 17.1528 55.3151 17.3609 55.4497 17.5294C55.58 17.6925 55.58 17.8287 55.58 17.902V17.9034C55.58 18.397 55.1783 18.7986 54.6847 18.7986H44.9872C44.4938 18.7986 44.0919 18.397 44.0919 17.903V17.9016C44.0919 17.8215 44.0919 17.6887 44.2223 17.5288C44.3577 17.3627 44.6424 17.1573 45.245 16.9684Z" fill="black" stroke="black" stroke-width="0.2"/>
<path id="Vector_9" d="M48.9049 14.6474C48.9049 15.1231 49.2906 15.5088 49.7663 15.5088C50.2421 15.5088 50.6277 15.1231 50.6277 14.6474V12.925C50.6277 12.4491 50.242 12.0636 49.7663 12.0636C49.2906 12.0636 48.9049 12.4491 48.9049 12.925V14.6474Z" fill="black" stroke="black" stroke-width="0.2"/>
<path id="Vector_10" d="M45.7242 30.1924H53.9478C54.4236 30.1924 54.8092 29.8066 54.8092 29.331V19.6598C54.8092 19.1841 54.4236 18.7984 53.9478 18.7984H45.7242C45.2484 18.7984 44.8628 19.1841 44.8628 19.6598V29.331C44.8628 29.8066 45.2484 30.1924 45.7242 30.1924ZM53.0866 20.5211V28.4698H46.5854V20.5212L53.0866 20.5211Z" fill="black" stroke="black" stroke-width="0.2"/>
<path id="Vector_11" d="M47.7331 9.42108L47.7331 9.42105C47.9773 8.50005 48.8135 7.85679 49.7664 7.85679C50.9262 7.85679 51.8699 8.80041 51.8699 9.96014C51.8699 11.1199 50.9261 12.0635 49.7664 12.0635C49.2906 12.0635 48.905 12.4492 48.905 12.9249C48.905 13.4006 49.2907 13.7862 49.7664 13.7862C51.8763 13.7862 53.5925 12.07 53.5925 9.96015C53.5925 7.85048 51.8761 6.13413 49.7663 6.13413C48.0329 6.13413 46.5121 7.30404 46.068 8.97949L46.068 8.9795C45.9461 9.43938 46.22 9.91087 46.6797 10.0329L46.6798 10.0329C47.1403 10.1548 47.6112 9.88062 47.7331 9.42108Z" fill="black" stroke="black" stroke-width="0.2"/>
</g>
<path id="Vector_12" d="M5.70561 17.7166H14.3434C15.4644 17.7166 16.3762 16.8048 16.3762 15.6838V8.07082C16.3762 6.94981 15.4644 6.03818 14.3434 6.03818H5.70561C4.58463 6.03818 3.67271 6.94995 3.67271 8.07082V15.6838C3.67271 16.8048 4.58462 17.7166 5.70561 17.7166ZM5.39536 8.07082C5.39536 7.90397 5.53848 7.76085 5.70561 7.76085H14.3434C14.5104 7.76085 14.6535 7.90383 14.6535 8.07082V15.6838C14.6535 15.8509 14.5105 15.9939 14.3434 15.9939H5.70561C5.5385 15.9939 5.39536 15.8509 5.39536 15.6838V8.07082Z" fill="black" stroke="black" stroke-width="0.2"/>
<path id="Vector_13" d="M4.57883 30.558C4.57883 31.0337 4.96435 31.4194 5.44009 31.4194C5.91582 31.4194 6.30149 31.0335 6.30149 30.558V25.2873C6.30149 24.8116 5.91581 24.4259 5.44009 24.4259C4.96435 24.4259 4.57883 24.8116 4.57883 25.2873V30.558Z" fill="black" stroke="black" stroke-width="0.2"/>
</g>
</g>
<defs>
<clipPath id="clip0_666_50">
<rect width="60" height="60" fill="white"/>
</clipPath>
</defs>
</svg>
