<svg width="70" height="70" viewBox="0 0 70 70" fill="none" xmlns="http://www.w3.org/2000/svg">
<g id="chair 1">
<g id="Vector">
<mask id="path-1-outside-1_666_69" maskUnits="userSpaceOnUse" x="0.680054" y="16.1399" width="69" height="50" fill="black">
<rect fill="white" x="0.680054" y="16.1399" width="69" height="50"/>
<path d="M68.6257 22.4708L57.4149 17.1752C57.3441 17.1399 57.2734 17.1399 57.238 17.1399H55.8941C55.6819 17.1399 55.4698 17.3164 55.4344 17.5282L53.8429 27.2369L35.3114 17.9872C35.2407 17.9519 35.1346 17.9166 35.0639 17.9519L6.24099 21.1646C6.0288 21.1999 5.85197 21.3764 5.85197 21.6235V23.3182C5.85197 23.4594 5.9227 23.5653 6.0288 23.6712L6.52391 24.0948V27.0604L3.69467 24.2361C3.62394 24.1655 3.48248 24.0948 3.37639 24.0948H2.52761C2.28006 24.0948 2.0325 24.2008 1.85567 24.4126C1.67884 24.6244 1.64348 24.8715 1.71421 25.1187L5.0032 38.4284L2.8459 56.3983C2.8459 56.5395 2.88127 56.6455 2.952 56.7514L3.73004 57.6693C3.83614 57.7752 3.9776 57.8458 4.15443 57.8105L5.53368 57.5987C5.74587 57.5634 5.88734 57.4222 5.9227 57.2103L7.37269 45.0656L9.63608 47.3251L8.61048 63.6004C8.61048 63.7063 8.64584 63.7769 8.68121 63.8829L9.31779 64.9067C9.38852 65.0479 9.56535 65.1185 9.70681 65.1185C9.77754 65.1185 9.8129 65.1185 9.88364 65.0832L11.3336 64.5183C11.5104 64.4477 11.6165 64.3065 11.6165 64.13L13.0665 50.0082L23.8176 48.8785L24.1713 64.1653C24.1713 64.2712 24.2067 64.3418 24.2774 64.4124L25.2323 65.6834C25.303 65.7893 25.4445 65.8599 25.5859 65.8599C25.6566 65.8599 25.692 65.8599 25.7627 65.8246L28.0615 64.942C28.2383 64.8714 28.3444 64.7302 28.3444 64.5183L28.3798 62.3295L29.9712 62.0117C30.2188 61.9764 30.3603 61.7293 30.3249 61.4822L28.6273 50.5378L28.8042 42.9827L42.0662 40.935L41.2882 51.2792C41.2882 51.4204 41.3589 51.5969 41.465 51.6675L42.526 52.4442C42.6674 52.5502 42.8089 52.5502 42.9857 52.5149L44.2235 51.9853C44.365 51.9147 44.4711 51.7735 44.5065 51.6322L45.6735 42.4178L50.5893 44.8185L50.0588 58.1282C50.0588 58.2695 50.1296 58.4107 50.2357 58.5166L51.2966 59.2933C51.3674 59.3639 51.4735 59.3992 51.5795 59.3992C51.6503 59.3992 51.6856 59.3992 51.7564 59.3639L52.9942 58.8343C53.1356 58.7637 53.2771 58.6225 53.2771 58.446L54.0905 45.3128L56.8844 44.7126L57.1319 58.5519C57.1319 58.6931 57.2027 58.8343 57.3088 58.9049L58.299 59.611C58.3697 59.6816 58.4758 59.6816 58.5819 59.6816C58.6173 59.6816 58.688 59.6816 58.7234 59.6463L60.8453 58.9755C61.0221 58.9049 61.1636 58.7637 61.1636 58.5519L61.6233 44.1477L64.205 43.7241L64.9831 52.1618C64.9831 52.2677 65.0538 52.3736 65.1245 52.4442L66.327 53.5034C66.3977 53.574 66.5038 53.6093 66.6099 53.6093C66.6806 53.6093 66.7867 53.574 66.8574 53.5387L68.0599 52.7973C68.2013 52.6914 68.2721 52.5502 68.2721 52.3736L66.9635 34.1566L68.8733 22.8239C68.9086 22.7533 68.8025 22.5768 68.6257 22.4708ZM6.73611 21.9766L34.9931 18.8345L60.9514 31.8265V32.7444L25.692 38.5343L6.73611 23.071V21.9766ZM23.6054 41.8176L21.4482 40.123C21.4482 40.123 21.4481 40.123 21.4128 40.0877L10.9446 31.8265L10.8385 31.4735C10.8031 31.4028 10.7678 31.3322 10.7324 31.2616L9.56535 30.0966V26.5308L23.4993 37.9342L23.6054 41.8176ZM11.369 33.3093L19.9628 40.123L13.4556 40.6879L11.369 33.3093ZM7.40805 27.6606V24.7656L8.64584 25.7895V29.1787L7.33732 27.8724C7.37269 27.8371 7.40805 27.7312 7.40805 27.6606ZM7.47878 43.9359L7.69097 42.1707L9.919 41.9942L9.70681 46.1248L7.47878 43.9359ZM7.83244 41.2528L8.04463 39.4875L9.49462 41.1115L7.83244 41.2528ZM10.697 63.7769L9.88364 64.0947L9.52998 63.5298L10.9092 41.5352V41.4999V41.4646C10.9092 41.4293 10.9092 41.4293 10.9092 41.394C10.9092 41.3587 10.9092 41.3234 10.8739 41.3234C10.8739 41.2881 10.8385 41.2528 10.8385 41.2528C10.8385 41.2528 10.8385 41.2175 10.8031 41.2175L8.04463 38.146C7.93853 38.0048 7.72634 37.9695 7.58488 38.0048C7.40805 38.0754 7.30195 38.2166 7.26659 38.3931L5.03856 56.7867L4.26052 56.9279L3.76541 56.363L5.9227 38.499C5.9227 38.4284 5.9227 38.3931 5.9227 38.3225L2.59834 25.0128H3.16419L10.0251 31.8265L12.9251 42.0295L10.697 63.7769ZM13.1019 49.1256L13.8092 42.0295C13.8092 41.9589 13.8092 41.9235 13.8092 41.8529L13.7385 41.5705L21.0238 40.935L23.6408 43.018L23.7469 47.9959L13.1019 49.1256ZM25.692 64.9067L25.0201 64.0241L24.4189 38.6755L25.2676 39.3816C25.3384 39.4522 25.4444 39.4875 25.5505 39.4875H25.6213L27.92 39.0992L27.3542 64.2712L25.692 64.9067ZM29.3347 61.2703L28.3798 61.4468L28.4859 55.8335L29.3347 61.2703ZM28.8749 38.958L57.4149 34.2625V37.7929L28.8042 42.206L28.8749 38.958ZM53.56 44.5714C53.3478 44.6067 53.2064 44.7832 53.2064 44.995L52.393 58.1988L51.6503 58.5166L50.9783 58.0223L51.5088 44.642C51.5088 44.4655 51.4027 44.2889 51.2613 44.2183L45.4967 41.4293C45.3552 41.3587 45.2138 41.3587 45.0723 41.4293C44.9308 41.4999 44.8601 41.6411 44.8247 41.7823L43.6223 51.3851L42.8443 51.7029L42.2077 51.2086L42.9857 40.935L56.7783 38.8168L56.8844 43.9006L53.56 44.5714ZM58.6526 58.8343L58.0514 58.3754L57.6978 38.6402L57.9807 38.6049C58.1929 38.5696 58.3697 38.3931 58.3697 38.146V34.1213L61.0575 33.6623L60.916 37.9342C60.8807 38.0048 60.8807 38.1107 60.916 38.1813L60.2795 58.3401L58.6526 58.8343ZM61.9063 34.2978L63.7099 35.1098L63.9928 38.8874L61.8002 37.7929L61.9063 34.2978ZM66.044 34.1919V34.2978L67.3526 52.303L66.6452 52.7267L65.8318 52.0206L65.0538 43.2651C65.0538 43.1239 64.9831 43.018 64.877 42.9474C64.7709 42.8768 64.6648 42.8415 64.5233 42.8768L61.6233 43.371L61.7648 38.8168L64.3111 40.0877C64.3819 40.123 64.4526 40.123 64.5233 40.123C64.594 40.123 64.7001 40.0877 64.7709 40.0524C64.9123 39.9465 64.9831 39.8053 64.9831 39.6288L64.6294 34.7921C64.6294 34.6155 64.5233 34.4743 64.3465 34.4037L61.9063 33.3093C61.9063 33.274 61.9416 33.2034 61.9416 33.1681V31.5794C61.9416 31.4029 61.8355 31.2616 61.6941 31.191L54.7271 27.6959L56.3185 18.0931H57.1673L67.9891 23.1769L66.044 34.1919Z"/>
</mask>
<path d="M68.6257 22.4708L57.4149 17.1752C57.3441 17.1399 57.2734 17.1399 57.238 17.1399H55.8941C55.6819 17.1399 55.4698 17.3164 55.4344 17.5282L53.8429 27.2369L35.3114 17.9872C35.2407 17.9519 35.1346 17.9166 35.0639 17.9519L6.24099 21.1646C6.0288 21.1999 5.85197 21.3764 5.85197 21.6235V23.3182C5.85197 23.4594 5.9227 23.5653 6.0288 23.6712L6.52391 24.0948V27.0604L3.69467 24.2361C3.62394 24.1655 3.48248 24.0948 3.37639 24.0948H2.52761C2.28006 24.0948 2.0325 24.2008 1.85567 24.4126C1.67884 24.6244 1.64348 24.8715 1.71421 25.1187L5.0032 38.4284L2.8459 56.3983C2.8459 56.5395 2.88127 56.6455 2.952 56.7514L3.73004 57.6693C3.83614 57.7752 3.9776 57.8458 4.15443 57.8105L5.53368 57.5987C5.74587 57.5634 5.88734 57.4222 5.9227 57.2103L7.37269 45.0656L9.63608 47.3251L8.61048 63.6004C8.61048 63.7063 8.64584 63.7769 8.68121 63.8829L9.31779 64.9067C9.38852 65.0479 9.56535 65.1185 9.70681 65.1185C9.77754 65.1185 9.8129 65.1185 9.88364 65.0832L11.3336 64.5183C11.5104 64.4477 11.6165 64.3065 11.6165 64.13L13.0665 50.0082L23.8176 48.8785L24.1713 64.1653C24.1713 64.2712 24.2067 64.3418 24.2774 64.4124L25.2323 65.6834C25.303 65.7893 25.4445 65.8599 25.5859 65.8599C25.6566 65.8599 25.692 65.8599 25.7627 65.8246L28.0615 64.942C28.2383 64.8714 28.3444 64.7302 28.3444 64.5183L28.3798 62.3295L29.9712 62.0117C30.2188 61.9764 30.3603 61.7293 30.3249 61.4822L28.6273 50.5378L28.8042 42.9827L42.0662 40.935L41.2882 51.2792C41.2882 51.4204 41.3589 51.5969 41.465 51.6675L42.526 52.4442C42.6674 52.5502 42.8089 52.5502 42.9857 52.5149L44.2235 51.9853C44.365 51.9147 44.4711 51.7735 44.5065 51.6322L45.6735 42.4178L50.5893 44.8185L50.0588 58.1282C50.0588 58.2695 50.1296 58.4107 50.2357 58.5166L51.2966 59.2933C51.3674 59.3639 51.4735 59.3992 51.5795 59.3992C51.6503 59.3992 51.6856 59.3992 51.7564 59.3639L52.9942 58.8343C53.1356 58.7637 53.2771 58.6225 53.2771 58.446L54.0905 45.3128L56.8844 44.7126L57.1319 58.5519C57.1319 58.6931 57.2027 58.8343 57.3088 58.9049L58.299 59.611C58.3697 59.6816 58.4758 59.6816 58.5819 59.6816C58.6173 59.6816 58.688 59.6816 58.7234 59.6463L60.8453 58.9755C61.0221 58.9049 61.1636 58.7637 61.1636 58.5519L61.6233 44.1477L64.205 43.7241L64.9831 52.1618C64.9831 52.2677 65.0538 52.3736 65.1245 52.4442L66.327 53.5034C66.3977 53.574 66.5038 53.6093 66.6099 53.6093C66.6806 53.6093 66.7867 53.574 66.8574 53.5387L68.0599 52.7973C68.2013 52.6914 68.2721 52.5502 68.2721 52.3736L66.9635 34.1566L68.8733 22.8239C68.9086 22.7533 68.8025 22.5768 68.6257 22.4708ZM6.73611 21.9766L34.9931 18.8345L60.9514 31.8265V32.7444L25.692 38.5343L6.73611 23.071V21.9766ZM23.6054 41.8176L21.4482 40.123C21.4482 40.123 21.4481 40.123 21.4128 40.0877L10.9446 31.8265L10.8385 31.4735C10.8031 31.4028 10.7678 31.3322 10.7324 31.2616L9.56535 30.0966V26.5308L23.4993 37.9342L23.6054 41.8176ZM11.369 33.3093L19.9628 40.123L13.4556 40.6879L11.369 33.3093ZM7.40805 27.6606V24.7656L8.64584 25.7895V29.1787L7.33732 27.8724C7.37269 27.8371 7.40805 27.7312 7.40805 27.6606ZM7.47878 43.9359L7.69097 42.1707L9.919 41.9942L9.70681 46.1248L7.47878 43.9359ZM7.83244 41.2528L8.04463 39.4875L9.49462 41.1115L7.83244 41.2528ZM10.697 63.7769L9.88364 64.0947L9.52998 63.5298L10.9092 41.5352V41.4999V41.4646C10.9092 41.4293 10.9092 41.4293 10.9092 41.394C10.9092 41.3587 10.9092 41.3234 10.8739 41.3234C10.8739 41.2881 10.8385 41.2528 10.8385 41.2528C10.8385 41.2528 10.8385 41.2175 10.8031 41.2175L8.04463 38.146C7.93853 38.0048 7.72634 37.9695 7.58488 38.0048C7.40805 38.0754 7.30195 38.2166 7.26659 38.3931L5.03856 56.7867L4.26052 56.9279L3.76541 56.363L5.9227 38.499C5.9227 38.4284 5.9227 38.3931 5.9227 38.3225L2.59834 25.0128H3.16419L10.0251 31.8265L12.9251 42.0295L10.697 63.7769ZM13.1019 49.1256L13.8092 42.0295C13.8092 41.9589 13.8092 41.9235 13.8092 41.8529L13.7385 41.5705L21.0238 40.935L23.6408 43.018L23.7469 47.9959L13.1019 49.1256ZM25.692 64.9067L25.0201 64.0241L24.4189 38.6755L25.2676 39.3816C25.3384 39.4522 25.4444 39.4875 25.5505 39.4875H25.6213L27.92 39.0992L27.3542 64.2712L25.692 64.9067ZM29.3347 61.2703L28.3798 61.4468L28.4859 55.8335L29.3347 61.2703ZM28.8749 38.958L57.4149 34.2625V37.7929L28.8042 42.206L28.8749 38.958ZM53.56 44.5714C53.3478 44.6067 53.2064 44.7832 53.2064 44.995L52.393 58.1988L51.6503 58.5166L50.9783 58.0223L51.5088 44.642C51.5088 44.4655 51.4027 44.2889 51.2613 44.2183L45.4967 41.4293C45.3552 41.3587 45.2138 41.3587 45.0723 41.4293C44.9308 41.4999 44.8601 41.6411 44.8247 41.7823L43.6223 51.3851L42.8443 51.7029L42.2077 51.2086L42.9857 40.935L56.7783 38.8168L56.8844 43.9006L53.56 44.5714ZM58.6526 58.8343L58.0514 58.3754L57.6978 38.6402L57.9807 38.6049C58.1929 38.5696 58.3697 38.3931 58.3697 38.146V34.1213L61.0575 33.6623L60.916 37.9342C60.8807 38.0048 60.8807 38.1107 60.916 38.1813L60.2795 58.3401L58.6526 58.8343ZM61.9063 34.2978L63.7099 35.1098L63.9928 38.8874L61.8002 37.7929L61.9063 34.2978ZM66.044 34.1919V34.2978L67.3526 52.303L66.6452 52.7267L65.8318 52.0206L65.0538 43.2651C65.0538 43.1239 64.9831 43.018 64.877 42.9474C64.7709 42.8768 64.6648 42.8415 64.5233 42.8768L61.6233 43.371L61.7648 38.8168L64.3111 40.0877C64.3819 40.123 64.4526 40.123 64.5233 40.123C64.594 40.123 64.7001 40.0877 64.7709 40.0524C64.9123 39.9465 64.9831 39.8053 64.9831 39.6288L64.6294 34.7921C64.6294 34.6155 64.5233 34.4743 64.3465 34.4037L61.9063 33.3093C61.9063 33.274 61.9416 33.2034 61.9416 33.1681V31.5794C61.9416 31.4029 61.8355 31.2616 61.6941 31.191L54.7271 27.6959L56.3185 18.0931H57.1673L67.9891 23.1769L66.044 34.1919Z" fill="#040000"/>
<path d="M68.6257 22.4708L57.4149 17.1752C57.3441 17.1399 57.2734 17.1399 57.238 17.1399H55.8941C55.6819 17.1399 55.4698 17.3164 55.4344 17.5282L53.8429 27.2369L35.3114 17.9872C35.2407 17.9519 35.1346 17.9166 35.0639 17.9519L6.24099 21.1646C6.0288 21.1999 5.85197 21.3764 5.85197 21.6235V23.3182C5.85197 23.4594 5.9227 23.5653 6.0288 23.6712L6.52391 24.0948V27.0604L3.69467 24.2361C3.62394 24.1655 3.48248 24.0948 3.37639 24.0948H2.52761C2.28006 24.0948 2.0325 24.2008 1.85567 24.4126C1.67884 24.6244 1.64348 24.8715 1.71421 25.1187L5.0032 38.4284L2.8459 56.3983C2.8459 56.5395 2.88127 56.6455 2.952 56.7514L3.73004 57.6693C3.83614 57.7752 3.9776 57.8458 4.15443 57.8105L5.53368 57.5987C5.74587 57.5634 5.88734 57.4222 5.9227 57.2103L7.37269 45.0656L9.63608 47.3251L8.61048 63.6004C8.61048 63.7063 8.64584 63.7769 8.68121 63.8829L9.31779 64.9067C9.38852 65.0479 9.56535 65.1185 9.70681 65.1185C9.77754 65.1185 9.8129 65.1185 9.88364 65.0832L11.3336 64.5183C11.5104 64.4477 11.6165 64.3065 11.6165 64.13L13.0665 50.0082L23.8176 48.8785L24.1713 64.1653C24.1713 64.2712 24.2067 64.3418 24.2774 64.4124L25.2323 65.6834C25.303 65.7893 25.4445 65.8599 25.5859 65.8599C25.6566 65.8599 25.692 65.8599 25.7627 65.8246L28.0615 64.942C28.2383 64.8714 28.3444 64.7302 28.3444 64.5183L28.3798 62.3295L29.9712 62.0117C30.2188 61.9764 30.3603 61.7293 30.3249 61.4822L28.6273 50.5378L28.8042 42.9827L42.0662 40.935L41.2882 51.2792C41.2882 51.4204 41.3589 51.5969 41.465 51.6675L42.526 52.4442C42.6674 52.5502 42.8089 52.5502 42.9857 52.5149L44.2235 51.9853C44.365 51.9147 44.4711 51.7735 44.5065 51.6322L45.6735 42.4178L50.5893 44.8185L50.0588 58.1282C50.0588 58.2695 50.1296 58.4107 50.2357 58.5166L51.2966 59.2933C51.3674 59.3639 51.4735 59.3992 51.5795 59.3992C51.6503 59.3992 51.6856 59.3992 51.7564 59.3639L52.9942 58.8343C53.1356 58.7637 53.2771 58.6225 53.2771 58.446L54.0905 45.3128L56.8844 44.7126L57.1319 58.5519C57.1319 58.6931 57.2027 58.8343 57.3088 58.9049L58.299 59.611C58.3697 59.6816 58.4758 59.6816 58.5819 59.6816C58.6173 59.6816 58.688 59.6816 58.7234 59.6463L60.8453 58.9755C61.0221 58.9049 61.1636 58.7637 61.1636 58.5519L61.6233 44.1477L64.205 43.7241L64.9831 52.1618C64.9831 52.2677 65.0538 52.3736 65.1245 52.4442L66.327 53.5034C66.3977 53.574 66.5038 53.6093 66.6099 53.6093C66.6806 53.6093 66.7867 53.574 66.8574 53.5387L68.0599 52.7973C68.2013 52.6914 68.2721 52.5502 68.2721 52.3736L66.9635 34.1566L68.8733 22.8239C68.9086 22.7533 68.8025 22.5768 68.6257 22.4708ZM6.73611 21.9766L34.9931 18.8345L60.9514 31.8265V32.7444L25.692 38.5343L6.73611 23.071V21.9766ZM23.6054 41.8176L21.4482 40.123C21.4482 40.123 21.4481 40.123 21.4128 40.0877L10.9446 31.8265L10.8385 31.4735C10.8031 31.4028 10.7678 31.3322 10.7324 31.2616L9.56535 30.0966V26.5308L23.4993 37.9342L23.6054 41.8176ZM11.369 33.3093L19.9628 40.123L13.4556 40.6879L11.369 33.3093ZM7.40805 27.6606V24.7656L8.64584 25.7895V29.1787L7.33732 27.8724C7.37269 27.8371 7.40805 27.7312 7.40805 27.6606ZM7.47878 43.9359L7.69097 42.1707L9.919 41.9942L9.70681 46.1248L7.47878 43.9359ZM7.83244 41.2528L8.04463 39.4875L9.49462 41.1115L7.83244 41.2528ZM10.697 63.7769L9.88364 64.0947L9.52998 63.5298L10.9092 41.5352V41.4999V41.4646C10.9092 41.4293 10.9092 41.4293 10.9092 41.394C10.9092 41.3587 10.9092 41.3234 10.8739 41.3234C10.8739 41.2881 10.8385 41.2528 10.8385 41.2528C10.8385 41.2528 10.8385 41.2175 10.8031 41.2175L8.04463 38.146C7.93853 38.0048 7.72634 37.9695 7.58488 38.0048C7.40805 38.0754 7.30195 38.2166 7.26659 38.3931L5.03856 56.7867L4.26052 56.9279L3.76541 56.363L5.9227 38.499C5.9227 38.4284 5.9227 38.3931 5.9227 38.3225L2.59834 25.0128H3.16419L10.0251 31.8265L12.9251 42.0295L10.697 63.7769ZM13.1019 49.1256L13.8092 42.0295C13.8092 41.9589 13.8092 41.9235 13.8092 41.8529L13.7385 41.5705L21.0238 40.935L23.6408 43.018L23.7469 47.9959L13.1019 49.1256ZM25.692 64.9067L25.0201 64.0241L24.4189 38.6755L25.2676 39.3816C25.3384 39.4522 25.4444 39.4875 25.5505 39.4875H25.6213L27.92 39.0992L27.3542 64.2712L25.692 64.9067ZM29.3347 61.2703L28.3798 61.4468L28.4859 55.8335L29.3347 61.2703ZM28.8749 38.958L57.4149 34.2625V37.7929L28.8042 42.206L28.8749 38.958ZM53.56 44.5714C53.3478 44.6067 53.2064 44.7832 53.2064 44.995L52.393 58.1988L51.6503 58.5166L50.9783 58.0223L51.5088 44.642C51.5088 44.4655 51.4027 44.2889 51.2613 44.2183L45.4967 41.4293C45.3552 41.3587 45.2138 41.3587 45.0723 41.4293C44.9308 41.4999 44.8601 41.6411 44.8247 41.7823L43.6223 51.3851L42.8443 51.7029L42.2077 51.2086L42.9857 40.935L56.7783 38.8168L56.8844 43.9006L53.56 44.5714ZM58.6526 58.8343L58.0514 58.3754L57.6978 38.6402L57.9807 38.6049C58.1929 38.5696 58.3697 38.3931 58.3697 38.146V34.1213L61.0575 33.6623L60.916 37.9342C60.8807 38.0048 60.8807 38.1107 60.916 38.1813L60.2795 58.3401L58.6526 58.8343ZM61.9063 34.2978L63.7099 35.1098L63.9928 38.8874L61.8002 37.7929L61.9063 34.2978ZM66.044 34.1919V34.2978L67.3526 52.303L66.6452 52.7267L65.8318 52.0206L65.0538 43.2651C65.0538 43.1239 64.9831 43.018 64.877 42.9474C64.7709 42.8768 64.6648 42.8415 64.5233 42.8768L61.6233 43.371L61.7648 38.8168L64.3111 40.0877C64.3819 40.123 64.4526 40.123 64.5233 40.123C64.594 40.123 64.7001 40.0877 64.7709 40.0524C64.9123 39.9465 64.9831 39.8053 64.9831 39.6288L64.6294 34.7921C64.6294 34.6155 64.5233 34.4743 64.3465 34.4037L61.9063 33.3093C61.9063 33.274 61.9416 33.2034 61.9416 33.1681V31.5794C61.9416 31.4029 61.8355 31.2616 61.6941 31.191L54.7271 27.6959L56.3185 18.0931H57.1673L67.9891 23.1769L66.044 34.1919Z" stroke="black" stroke-width="0.4" mask="url(#path-1-outside-1_666_69)"/>
</g>
</g>
</svg>
