<svg width="60" height="71" viewBox="0 0 60 71" fill="none" xmlns="http://www.w3.org/2000/svg">
<g id="television_5383373 1" clip-path="url(#clip0_666_46)">
<g id="Group">
<path id="Vector" d="M3.75 55.2597H12L7.875 60.0722L9.625 62.1138L15.5 55.2597H44.5L50.375 62.1138L52.125 60.0722L48 55.2597H56.25C58.375 55.2597 60 53.3639 60 50.8847V12.968C60 10.4889 58.375 8.59302 56.25 8.59302H3.75C1.625 8.59302 0 10.4889 0 12.968V50.8847C0 53.3639 1.625 55.2597 3.75 55.2597ZM56.25 52.343H3.75C3 52.343 2.5 51.7597 2.5 50.8847V49.5722H57.5V50.8847C57.5 51.7597 57 52.343 56.25 52.343ZM3.75 11.5097H56.25C57 11.5097 57.5 12.093 57.5 12.968V46.6555H2.5V12.968C2.5 12.093 3 11.5097 3.75 11.5097Z" fill="black"/>
</g>
</g>
<defs>
<clipPath id="clip0_666_46">
<rect width="60" height="70" fill="white" transform="translate(0 0.353516)"/>
</clipPath>
</defs>
</svg>
