<svg width="60" height="61" viewBox="0 0 60 61" fill="none" xmlns="http://www.w3.org/2000/svg">
<g id="shelves_11203509 1" clip-path="url(#clip0_666_644)">
<g id="Layer_x0020_1">
<g id="_1688743989584">
<g id="Group">
<g id="_251246320">
<path id="Vector" d="M3.26483 57.0301H6.9035C7.28347 57.0301 7.58944 56.7227 7.58944 56.3442V0.91333C7.58944 0.534795 7.28347 0.227393 6.9035 0.227393H3.26483C2.88486 0.227393 2.57889 0.534795 2.57889 0.91333V56.3442C2.57889 56.7227 2.88486 57.0301 3.26483 57.0301ZM6.21757 1.59927V55.6583H3.95077V1.59927H6.21757Z" fill="black" stroke="black" stroke-width="0.2"/>
</g>
<g id="_251248048">
<path id="Vector_2" d="M53.0953 57.0301H56.7351C57.1138 57.0301 57.4211 56.7229 57.4211 56.3442V0.91333C57.4211 0.534664 57.1138 0.227393 56.7351 0.227393H53.0953C52.7166 0.227393 52.4093 0.534664 52.4093 0.91333V56.3442C52.4093 56.7229 52.7166 57.0301 53.0953 57.0301ZM56.0492 1.59927V55.6583H53.7812V1.59927H56.0492Z" fill="black" stroke="black" stroke-width="0.2"/>
</g>
<g id="_251248432">
<path id="Vector_3" d="M6.90349 10.5582H53.0953C53.474 10.5582 53.7812 10.2509 53.7812 9.87227V6.23242C53.7812 5.85389 53.4753 5.54648 53.0953 5.54648H6.90349C6.52456 5.54648 6.21873 5.85402 6.21873 6.23242V9.87227C6.21873 10.2507 6.52456 10.5582 6.90349 10.5582ZM52.4093 6.91836V9.18633H7.58943V6.91836H52.4093Z" fill="black" stroke="black" stroke-width="0.2"/>
</g>
<g id="_251248792">
<path id="Vector_4" d="M6.90349 31.1339H53.0953C53.474 31.1339 53.7812 30.8267 53.7812 30.448V26.8093C53.7812 26.4308 53.4753 26.1234 53.0953 26.1234H6.90349C6.52456 26.1234 6.21873 26.4309 6.21873 26.8093V30.448C6.21873 30.8264 6.52456 31.1339 6.90349 31.1339ZM52.4093 27.4953V29.7621H7.58943V27.4953H52.4093Z" fill="black" stroke="black" stroke-width="0.2"/>
</g>
<g id="_251248840">
<path id="Vector_5" d="M6.90349 51.711H53.0953C53.474 51.711 53.7812 51.4038 53.7812 51.0251V47.3853C53.7812 47.0067 53.4753 46.6993 53.0953 46.6993H6.90349C6.52456 46.6993 6.21873 47.0068 6.21873 47.3853V51.0251C6.21873 51.4035 6.52456 51.711 6.90349 51.711ZM52.4093 48.0712V50.3392H7.58943V48.0712H52.4093Z" fill="black" stroke="black" stroke-width="0.2"/>
</g>
<g id="_251248744">
<path id="Vector_6" d="M1.91718 60.4251H8.25116C8.62983 60.4251 8.9371 60.1178 8.9371 59.7392V56.3442C8.9371 55.9656 8.62983 55.6583 8.25116 55.6583H1.91718C1.53851 55.6583 1.23124 55.9656 1.23124 56.3442V59.7392C1.23124 60.1178 1.53851 60.4251 1.91718 60.4251ZM7.56522 57.0302V59.0532H2.60311V57.0302H7.56522Z" fill="black" stroke="black" stroke-width="0.2"/>
</g>
<g id="_251248888">
<path id="Vector_7" d="M51.7488 60.4251H58.0817C58.4603 60.4251 58.7676 60.1178 58.7676 59.7392V56.3442C58.7676 55.9657 58.4616 55.6583 58.0817 55.6583H51.7488C51.3702 55.6583 51.0629 55.9656 51.0629 56.3442V59.7392C51.0629 60.1178 51.3702 60.4251 51.7488 60.4251ZM57.3957 57.0302V59.0532H52.4348V57.0302H57.3957Z" fill="black" stroke="black" stroke-width="0.2"/>
</g>
<g id="Group_2">
<g id="_251248936">
<path id="Vector_8" d="M26.7926 17.8391H35.0145L25.3407 14.5996L25.2456 14.6307L25.2456 14.6308C25.2456 14.6308 25.2457 14.6308 25.2457 14.6309L26.1409 17.3657L26.236 17.3348L26.1409 17.3659L26.1409 17.3658C26.2328 17.6484 26.4963 17.8391 26.7926 17.8391ZM36.5626 14.6309C36.5626 14.6308 36.5626 14.6308 36.5626 14.6308L35.5711 17.3348L35.6662 17.3659L35.6662 17.3659C35.6662 17.3658 35.6662 17.3658 35.6662 17.3657L36.5626 14.6309ZM34.5178 16.4672H27.2905L26.8438 15.1027H34.9644L34.5178 16.4672Z" fill="black" stroke="black" stroke-width="0.2"/>
</g>
<g id="_251249224">
<path id="Vector_9" d="M26.1767 16.8497L26.1765 16.8503C26.1103 16.9862 25.3216 18.6263 25.0052 20.7125C24.689 22.7972 24.8416 25.3491 26.6862 27.2825C26.8206 27.4237 27.0006 27.4952 27.1816 27.4952C27.3513 27.4952 27.523 27.4323 27.6552 27.3045C27.9293 27.0437 27.9401 26.609 27.6782 26.3347C26.1807 24.7656 26.0967 22.5726 26.4021 20.743C26.5544 19.8305 26.8027 19.0148 27.0149 18.4234C27.121 18.1279 27.2179 17.8886 27.2891 17.7217C27.3247 17.6383 27.3539 17.573 27.3745 17.5277C27.3848 17.5051 27.393 17.4876 27.3988 17.4753L27.4056 17.4609L27.4075 17.4569C27.408 17.456 27.4082 17.4556 27.4082 17.4555L27.4082 17.4555L27.4082 17.4555L27.4086 17.4547C27.5744 17.1149 27.4349 16.7033 27.0944 16.537C26.7539 16.3697 26.344 16.5112 26.1767 16.8497Z" fill="black" stroke="black" stroke-width="0.2"/>
</g>
<g id="_251249296">
<path id="Vector_10" d="M34.1287 26.3349L34.1289 26.3347C35.6305 24.7615 35.7142 22.5682 35.4076 20.7395C35.1015 18.914 34.4106 17.4796 34.3985 17.4548L34.3984 17.4547C34.2326 17.1148 34.3721 16.7033 34.7127 16.537C35.0529 16.3698 35.4643 16.511 35.6304 16.85L34.1287 26.3349ZM34.1287 26.3349C33.8683 26.609 33.8775 27.0436 34.1521 27.3046M34.1287 26.3349L34.1521 27.3046M34.1521 27.3046C34.285 27.432 34.4553 27.4952 34.6254 27.4952C34.8062 27.4952 34.9875 27.4239 35.122 27.2826L34.1521 27.3046ZM36.8029 20.7125C37.1192 22.7972 36.9666 25.3491 35.1221 27.2825L36.8029 20.7125ZM36.8029 20.7125C36.4864 18.6268 35.6977 16.987 35.6305 16.85L36.8029 20.7125Z" fill="black" stroke="black" stroke-width="0.2"/>
</g>
</g>
<g id="Group_3">
<g id="Group_4">
<g id="_251249368">
<path id="Vector_11" d="M12.2567 27.4931H20.5981C20.978 27.4931 21.284 27.1857 21.284 26.8072V18.4646C21.284 18.0861 20.978 17.7787 20.5981 17.7787H12.2567C11.8767 17.7787 11.5707 18.0861 11.5707 18.4646V26.8072C11.5707 27.1857 11.8767 27.4931 12.2567 27.4931ZM19.9121 19.1505V26.1212H12.9426V19.1505H19.9121Z" fill="black" stroke="black" stroke-width="0.2"/>
</g>
<g id="_251249512">
<path id="Vector_12" d="M12.2567 23.3212H20.5981C20.9779 23.3212 21.284 23.0151 21.284 22.6353C21.284 22.2567 20.978 21.9493 20.5981 21.9493H12.2567C11.8767 21.9493 11.5707 22.2567 11.5707 22.6353C11.5707 23.0151 11.8768 23.3212 12.2567 23.3212Z" fill="black" stroke="black" stroke-width="0.2"/>
</g>
<g id="_251249584">
<path id="Vector_13" d="M15.0375 19.1504H17.8184C18.1971 19.1504 18.5043 18.8432 18.5043 18.4645V14.9243C18.5043 14.2679 17.9697 13.7333 17.3133 13.7333H15.5426C14.885 13.7333 14.3516 14.2679 14.3516 14.9243V18.4645C14.3516 18.843 14.6576 19.1504 15.0375 19.1504ZM17.1325 15.1051V17.7786H15.7223V15.1051H17.1325Z" fill="black" stroke="black" stroke-width="0.2"/>
</g>
</g>
<g id="_251249488">
<path id="Vector_14" d="M43.95 27.493H49.5516C49.9302 27.493 50.2375 27.1857 50.2375 26.807V18.5723C50.2375 18.1936 49.9302 17.8863 49.5516 17.8863H43.95C43.57 17.8863 43.2641 18.1937 43.2641 18.5723V26.807C43.2641 27.1856 43.57 27.493 43.95 27.493ZM48.8656 19.2582V26.1211H44.6359V19.2582H48.8656Z" fill="black" stroke="black" stroke-width="0.2"/>
</g>
</g>
<g id="Group_5">
<g id="_251249752">
<path id="Vector_15" d="M13.5453 47.3852C13.5453 47.7637 13.8512 48.0711 14.2312 48.0711C14.6099 48.0711 14.9171 47.7639 14.9171 47.3852V42.6965C14.9171 42.3166 14.6097 42.0106 14.2312 42.0106C13.8514 42.0106 13.5453 42.3167 13.5453 42.6965V47.3852Z" fill="black" stroke="black" stroke-width="0.2"/>
</g>
<g id="_251249824">
<path id="Vector_16" d="M13.7414 43.3826H15.0703C16.9923 43.3826 18.5558 41.819 18.5558 39.897V37.0974C18.5558 36.7187 18.2486 36.4115 17.8699 36.4115H10.9418C10.5618 36.4115 10.2558 36.7189 10.2558 37.0974V39.897C10.2558 41.819 11.8194 43.3826 13.7414 43.3826ZM11.6265 39.897V37.7833H17.184V39.897C17.184 41.0618 16.2361 42.0107 15.0703 42.0107H13.7402C12.5755 42.0107 11.6265 41.0617 11.6265 39.897Z" fill="black" stroke="black" stroke-width="0.2"/>
</g>
<g id="_251249896">
<path id="Vector_17" d="M29.1394 47.3852C29.1394 47.7637 29.4454 48.0711 29.8254 48.0711C30.204 48.0711 30.5113 47.7639 30.5113 47.3852V42.6965C30.5113 42.3166 30.2039 42.0106 29.8254 42.0106C29.4455 42.0106 29.1394 42.3167 29.1394 42.6965V47.3852Z" fill="black" stroke="black" stroke-width="0.2"/>
</g>
<g id="_251249968">
<path id="Vector_18" d="M29.3355 43.3826H30.6644C32.5864 43.3826 34.15 41.819 34.15 39.897V37.0974C34.15 36.7187 33.8427 36.4115 33.464 36.4115H26.5359C26.1572 36.4115 25.85 36.7187 25.85 37.0974V39.897C25.85 41.819 27.4135 43.3826 29.3355 43.3826ZM27.2218 39.897V37.7833H32.7781V39.897C32.7781 41.0618 31.8302 42.0107 30.6644 42.0107H29.3355C28.1697 42.0107 27.2218 41.0618 27.2218 39.897Z" fill="black" stroke="black" stroke-width="0.2"/>
</g>
<g id="_251250040">
<path id="Vector_19" d="M44.7336 47.3852C44.7336 47.7639 45.0408 48.0711 45.4195 48.0711C45.7982 48.0711 46.1054 47.7639 46.1054 47.3852V42.6965C46.1054 42.3166 45.798 42.0106 45.4195 42.0106C45.041 42.0106 44.7336 42.3166 44.7336 42.6965V47.3852Z" fill="black" stroke="black" stroke-width="0.2"/>
</g>
<g id="_251250112">
<path id="Vector_20" d="M44.9297 43.3826H46.2586C48.1806 43.3826 49.7441 41.819 49.7441 39.897V37.0974C49.7441 36.7187 49.4369 36.4115 49.0582 36.4115H42.1301C41.7501 36.4115 41.4441 36.7189 41.4441 37.0974V39.897C41.4441 41.819 43.0076 43.3826 44.9297 43.3826ZM42.816 39.897V37.7833H48.3734V39.897C48.3734 41.0617 47.4245 42.0107 46.2586 42.0107H44.9297C43.7638 42.0107 42.816 41.0618 42.816 39.897Z" fill="black" stroke="black" stroke-width="0.2"/>
</g>
</g>
</g>
</g>
</g>
</g>
<defs>
<clipPath id="clip0_666_644">
<rect width="60" height="60" fill="white" transform="translate(0 0.326172)"/>
</clipPath>
</defs>
</svg>
