<svg width="60" height="61" viewBox="0 0 60 61" fill="none" xmlns="http://www.w3.org/2000/svg">
<g id="bath_3130222 1" clip-path="url(#clip0_666_504)">
<g id="Page-1">
<g id="010---Bath-and-Shower">
<path id="Shape" d="M57 41.5264V38.5264H58C59.1046 38.5264 60 37.631 60 36.5264V35.5264C60 33.3173 58.2091 31.5264 56 31.5264H49.51C48.2205 29.069 45.6752 27.5288 42.9 27.5264H31.9C29.7803 27.4203 27.714 28.2129 26.209 29.7094C26.047 29.5874 25.886 29.4634 25.736 29.3324C22.7323 26.8124 18.9202 25.461 15 25.5264H11V7.52641C11 6.97412 11.4477 6.52641 12 6.52641H17.34C17.6085 6.52581 17.8657 6.63405 18.053 6.82641L19.474 8.24741C18.5219 9.47092 18.0034 10.9761 18 12.5264C18 13.631 18.8954 14.5264 20 14.5264H30C31.0223 14.5147 31.8777 13.7474 32 12.7324C32.0536 9.15936 29.4489 6.10074 25.913 5.58441C25.69 5.55641 25.467 5.54241 25.244 5.53541L22.3 2.57941C20.9876 1.25955 19.2013 0.520191 17.34 0.526406H12C8.13583 0.530815 5.00441 3.66224 5 7.52641V25.5264H4C1.79086 25.5264 0 27.3173 0 29.5264V30.5264C0 31.631 0.89543 32.5264 2 32.5264H3V41.5264C3.00446 45.9566 5.26608 50.0792 9 52.4634V54.5264H8C6.34315 54.5264 5 55.8696 5 57.5264V58.5264H1C0.447715 58.5264 0 58.9741 0 59.5264C0 60.0787 0.447715 60.5264 1 60.5264H59C59.5523 60.5264 60 60.0787 60 59.5264C60 58.9741 59.5523 58.5264 59 58.5264H55V57.5264C55 55.8696 53.6569 54.5264 52 54.5264H51V52.4634C54.7339 50.0792 56.9955 45.9566 57 41.5264ZM58 35.5264V36.5264H50.4V35.0264C50.3999 34.5225 50.3486 34.0199 50.247 33.5264H56C57.1046 33.5264 58 34.4218 58 35.5264ZM47.977 32.9094C48.2565 33.5802 48.4002 34.2997 48.4 35.0264V46.5264C48.4 47.0787 47.9523 47.5264 47.4 47.5264H40C39.4477 47.5264 39 47.0787 39 46.5264V35.0264C39.0013 32.9373 38.1285 30.943 36.593 29.5264H42.9C45.12 29.5261 47.1225 30.8605 47.977 32.9094ZM35 35.0264C35.0034 34.5652 34.9125 34.1082 34.733 33.6834C34.1953 32.3802 32.9258 31.529 31.516 31.5264C30.312 31.5119 29.1236 31.2526 28.023 30.7644C29.6686 29.4217 31.9403 29.1465 33.8589 30.0574C35.7775 30.9683 37.0002 32.9025 37 35.0264V46.5264C37.0033 46.8679 37.0656 47.2062 37.184 47.5264H36C35.4477 47.5264 35 47.0787 35 46.5264V35.0264ZM30 12.5264H20C20 9.76498 22.2386 7.52641 25 7.52641C27.7614 7.52641 30 9.76498 30 12.5264ZM7 7.52641C7.00331 4.76635 9.23995 2.52971 12 2.52641H17.34C18.6691 2.52243 19.9445 3.05032 20.882 3.99241L22.782 5.89741C22.1134 6.11953 21.4823 6.4415 20.91 6.85241L19.467 5.40941C18.9045 4.8426 18.1385 4.5246 17.34 4.52641H12C10.3431 4.52641 9 5.86955 9 7.52641V25.5264H7V7.52641ZM2 29.5264C2 28.4218 2.89543 27.5264 4 27.5264H15C18.437 27.4611 21.7823 28.6374 24.422 30.8394C26.2866 32.4524 28.6376 33.3944 31.1 33.5154C31.5916 33.4717 32.0826 33.6047 32.485 33.8904C32.8126 34.177 33.0003 34.5912 33 35.0264V36.5264H32C28.5623 36.5885 25.2169 35.4118 22.575 33.2114C20.5812 31.4809 18.0301 30.5276 15.39 30.5264H2V29.5264ZM5 41.5264V32.5264H15.39C17.5477 32.5274 19.6327 33.306 21.263 34.7194C24.2676 37.2385 28.0796 38.5901 32 38.5264H33V46.5264C33 48.1833 34.3431 49.5264 36 49.5264H47.4C49.0569 49.5264 50.4 48.1833 50.4 46.5264V38.5264H55V41.5264C54.9928 47.5986 50.0722 52.5192 44 52.5264H16C9.92784 52.5192 5.00716 47.5986 5 41.5264ZM18.182 54.5264H41.818C43.052 55.5054 43.8206 56.9556 43.938 58.5264H16.061C16.1793 56.9556 16.9481 55.5056 18.182 54.5264ZM7 58.5264V57.5264C7 56.9741 7.44772 56.5264 8 56.5264H10C10.5523 56.5264 11 56.0787 11 55.5264V53.5264C12.4206 54.1156 13.9351 54.4461 15.472 54.5024C14.6445 55.6913 14.1532 57.0815 14.05 58.5264H7ZM50 56.5264H52C52.5523 56.5264 53 56.9741 53 57.5264V58.5264H45.955C45.8495 57.0803 45.3565 55.6893 44.528 54.4994C46.0647 54.444 47.5792 54.1145 49 53.5264V55.5264C49 56.0787 49.4477 56.5264 50 56.5264Z" fill="black"/>
<path id="Shape_2" d="M17 49.5264C17 48.9741 16.5523 48.5264 16 48.5264C12.1358 48.522 9.00441 45.3905 9 41.5264C9 40.9741 8.55228 40.5264 8 40.5264C7.44772 40.5264 7 40.9741 7 41.5264C7.00551 46.4946 11.0317 50.5209 16 50.5264C16.5523 50.5264 17 50.0787 17 49.5264Z" fill="black"/>
<path id="Shape_3" d="M24 17.5264V22.5264C24 23.0787 24.4477 23.5264 25 23.5264C25.5523 23.5264 26 23.0787 26 22.5264V17.5264C26 16.9741 25.5523 16.5264 25 16.5264C24.4477 16.5264 24 16.9741 24 17.5264Z" fill="black"/>
<path id="Shape_4" d="M20.071 17.1544L18.071 22.1544C17.8656 22.6674 18.1149 23.2499 18.628 23.4554C19.1411 23.6608 19.7236 23.4114 19.929 22.8984L21.929 17.8984C22.1345 17.3853 21.8851 16.8028 21.372 16.5974C20.8589 16.3919 20.2765 16.6413 20.071 17.1544Z" fill="black"/>
<path id="Shape_5" d="M29.929 17.1544C29.7236 16.6413 29.1411 16.3919 28.628 16.5974C28.1149 16.8028 27.8656 17.3853 28.071 17.8984L30.071 22.8984C30.2039 23.2303 30.5038 23.4661 30.8577 23.5169C31.2115 23.5678 31.5657 23.426 31.7867 23.1449C32.0076 22.8639 32.0619 22.4863 31.929 22.1544L29.929 17.1544Z" fill="black"/>
</g>
</g>
</g>
<defs>
<clipPath id="clip0_666_504">
<rect width="60" height="60" fill="white" transform="translate(0 0.526367)"/>
</clipPath>
</defs>
</svg>
