<svg width="60" height="61" viewBox="0 0 60 61" fill="none" xmlns="http://www.w3.org/2000/svg">
<g id="furniture 1">
<path id="Vector" d="M60 20.5264H55V14.2764C55 8.07387 49.9525 3.02637 43.75 3.02637H16.25C10.0475 3.02637 5 8.07387 5 14.2764V20.5264H0V53.0264H5V58.0264H7.5V53.0264H52.5V58.0264H55V53.0264H60V20.5264ZM16.25 5.52637H43.75C48.575 5.52637 52.5 9.45137 52.5 14.2764V20.5264C49.7425 20.5264 47.5 22.7689 47.5 25.5264V38.0264H37.5C34.3225 38.0264 31.5325 39.7314 30 42.2739C28.4675 39.7314 25.6775 38.0264 22.5 38.0264H12.5V26.7764C12.5 23.7589 10.35 21.2339 7.5 20.6514V14.2764C7.5 9.45137 11.425 5.52637 16.25 5.52637ZM2.5 50.5264V23.0264H6.25C8.3175 23.0264 10 24.7089 10 26.7764V40.5264H22.5C25.9475 40.5264 28.75 43.3314 28.75 46.7764V50.5264H2.5ZM57.5 50.5264H31.25V46.7764C31.25 43.3314 34.0525 40.5264 37.5 40.5264H50V25.5264C50 24.1489 51.12 23.0264 52.5 23.0264H57.5V50.5264Z" fill="black"/>
</g>
</svg>
