<svg width="60" height="61" viewBox="0 0 60 61" fill="none" xmlns="http://www.w3.org/2000/svg">
<g id="paint-roller_1096196 1" clip-path="url(#clip0_666_632)">
<path id="Vector" d="M51.0393 7.53986V3.44012C51.0393 1.78302 49.6957 0.439941 48.0391 0.439941H8.03925C6.38214 0.439941 5.03906 1.78302 5.03906 3.44012V13.44C5.03906 15.0966 6.38214 16.4402 8.03925 16.4402H48.0391C49.6957 16.4402 51.0393 15.0966 51.0393 13.44V9.62405C52.2336 10.0461 53.0337 11.1731 53.0392 12.4398V15.4399C53.0392 17.0966 51.6957 18.4401 50.0391 18.4401H34.0388C32.3822 18.4401 31.0391 19.7832 31.0391 21.4398V22.4401H29.0392C27.3592 22.4442 25.8623 23.5021 25.2969 25.0841C25.2571 25.1221 25.21 25.1528 25.1729 25.194C23.9314 26.3503 22.5865 27.3903 21.1551 28.3008C20.587 28.6908 20.1233 29.0108 19.8871 29.2008C19.4243 29.5597 19.0805 30.049 18.9001 30.6061L16.257 38.5401C16.095 39.0088 16.0519 39.5105 16.133 39.9999L17.8839 50.5069C17.9329 50.8054 17.8436 51.1098 17.6422 51.335L8.26401 58.6519C8.24707 58.6647 8.2402 58.684 8.2251 58.6968C8.17429 58.7448 8.12897 58.7979 8.08914 58.8552C8.0516 58.9023 8.01819 58.9522 7.98889 59.0048C7.94083 59.1257 7.90695 59.252 7.8891 59.3811C7.8891 59.4008 7.8772 59.4191 7.8772 59.4397C7.88223 59.4814 7.89093 59.5221 7.90192 59.5619C7.90787 59.6297 7.92114 59.697 7.9422 59.762C7.96783 59.8265 8.00034 59.8883 8.03925 59.946C8.05481 59.9835 8.07358 60.0197 8.09418 60.055C8.10516 60.0701 8.12302 60.0751 8.13492 60.0888C8.20496 60.168 8.2869 60.2353 8.37799 60.2889C8.40774 60.3122 8.43933 60.3333 8.47229 60.352C8.60001 60.4097 8.73871 60.4399 8.87924 60.4399H26.2889C26.4267 60.4399 26.5631 60.4111 26.689 60.3557C26.716 60.3438 26.738 60.3191 26.765 60.3049C26.8588 60.2559 26.9444 60.1927 27.0181 60.1168C27.0259 60.109 27.0369 60.1058 27.0442 60.098C27.4612 59.6201 27.8439 59.117 28.2312 58.6071C29.1042 57.2901 30.2353 56.164 31.5559 55.297C32.9297 54.359 34.14 53.2027 35.1389 51.8729C35.284 51.6999 35.4149 51.547 35.549 51.389C37.5394 51.1363 39.033 49.4463 39.039 47.4399V46.4402C40.6961 46.4402 42.0392 45.0966 42.0392 43.44C42.036 42.9232 41.8982 42.416 41.6391 41.9687C42.3889 41.5018 42.892 40.7254 43.0119 39.8497C43.1319 38.9745 42.8558 38.0915 42.2589 37.4401C43.0582 36.5639 43.2632 35.2982 42.7821 34.2147C42.301 33.1311 41.2248 32.4349 40.0392 32.4399H39.039V31.426C40.6535 31.5061 42.1646 30.6299 42.897 29.1889C43.2481 28.1736 42.9011 27.0475 42.0392 26.4061C42.003 26.3759 41.9655 26.3484 41.9261 26.3228L38.1532 23.9539C37.4007 23.0004 36.254 22.4428 35.0391 22.4401H33.0391V21.4398C33.0391 20.8878 33.4868 20.4401 34.0388 20.4401H50.0391C52.7989 20.4364 55.0355 18.1998 55.0392 15.4399V12.4398C55.036 10.0649 53.3656 8.01822 51.0393 7.53986ZM49.0388 13.44C49.0388 13.992 48.5912 14.4397 48.0391 14.4397H8.03925C7.48672 14.4397 7.03903 13.992 7.03903 13.44V7.46707C8.4668 7.53482 9.87259 7.84381 11.1969 8.37985C13.0527 9.12509 15.0403 9.48535 17.0389 9.44003C19.037 9.48535 21.0237 9.12463 22.8781 8.37985C24.5142 7.71701 26.2683 7.39749 28.033 7.44006C29.799 7.39703 31.5555 7.71701 33.1929 8.37985C35.05 9.12509 37.0386 9.48581 39.039 9.44003C41.0371 9.48489 43.0238 9.12418 44.8791 8.37985C46.2044 7.84381 47.6111 7.53482 49.0388 7.46707V13.44ZM49.0388 5.46298C47.3772 5.52844 45.7393 5.87955 44.1962 6.49982C42.5592 7.1622 40.8041 7.48218 39.039 7.44006C37.2729 7.48264 35.5165 7.16266 33.8791 6.49982C32.0224 5.75458 30.0334 5.39432 28.033 5.44009C26.0348 5.39432 24.0486 5.75503 22.1942 6.49982C20.5582 7.16266 18.8036 7.48264 17.0389 7.44006C15.2737 7.48264 13.5182 7.16266 11.8813 6.49982C10.3386 5.87909 8.70071 5.52844 7.03903 5.46298V3.44012C7.03903 3.17462 7.14432 2.92056 7.332 2.73288C7.51968 2.5452 7.77374 2.43991 8.03925 2.43991H48.0391C48.5912 2.43991 49.0388 2.8876 49.0388 3.44012V5.46298ZM39.039 26.8749L40.7909 27.9749C41.1063 28.261 41.0431 28.4349 41.0179 28.5018C40.562 29.1312 39.814 29.4805 39.039 29.4269V26.8749ZM30.526 53.5817C28.986 54.5792 27.6627 55.8769 26.6359 57.3981C26.3663 57.7538 26.0889 58.098 25.8083 58.44H11.7842L18.934 52.858C18.9688 52.8305 19.0022 52.8012 19.0343 52.7701C19.7076 52.0844 20.013 51.118 19.855 50.17L18.1068 39.6749C18.0789 39.5114 18.0926 39.3434 18.148 39.1869L20.7999 31.2291C20.8575 31.0478 20.9692 30.8885 21.1198 30.7727C21.3451 30.596 21.7689 30.3058 22.2871 29.9501C23.855 28.9563 25.3207 27.8101 26.6629 26.5279C26.7146 26.4752 26.7801 26.4391 26.852 26.4231C27.469 27.3958 26.5919 29.7908 24.5201 31.4749C24.0477 31.7519 23.8856 32.3571 24.1571 32.8331C24.2569 33.0469 24.6748 34.0329 24.7202 34.1478C24.9239 34.7191 25.0314 35.3206 25.0392 35.9272C25.0369 36.0947 25.0218 36.2618 24.993 36.427C24.9042 36.8651 24.6886 37.267 24.3732 37.5838C24.0143 37.9761 23.5895 38.3025 23.118 38.5478C22.6291 38.7987 22.4341 39.397 22.6813 39.8877C22.9289 40.3784 23.5254 40.5776 24.0179 40.334C24.3791 40.1482 24.7211 39.9275 25.0392 39.6749V47.4399C25.0392 49.6491 26.83 51.4398 29.0392 51.4398H32.8812C32.2101 52.2698 31.4159 52.9926 30.526 53.5817ZM39.039 44.4397H35.0391C34.487 44.4397 34.0388 43.992 34.0388 43.44C34.0388 42.8874 34.487 42.4398 35.0391 42.4398H39.039C39.5915 42.4398 40.0392 42.8874 40.0392 43.44C40.0392 43.992 39.5915 44.4397 39.039 44.4397ZM40.0392 40.4398H34.0388C33.4868 40.4398 33.0391 39.9921 33.0391 39.44C33.0391 38.8875 33.4868 38.4398 34.0388 38.4398H40.0392C40.5913 38.4398 41.039 38.8875 41.039 39.44C41.039 39.9921 40.5913 40.4398 40.0392 40.4398ZM40.0392 34.4399C40.5913 34.4399 41.039 34.8876 41.039 35.4401C41.039 35.9922 40.5913 36.4398 40.0392 36.4398H32.0389C31.4868 36.4398 31.0391 35.9922 31.0391 35.4401C31.0391 34.8876 31.4868 34.4399 32.0389 34.4399H40.0392ZM35.0391 24.44C36.1436 24.44 37.039 25.3354 37.039 26.44V32.4399H32.0389C30.536 32.4372 29.2644 33.5495 29.0666 35.0395C28.8693 36.5296 29.8073 37.9349 31.2588 38.324C30.7123 39.6643 31.2108 41.2033 32.439 41.9687C32.1799 42.416 32.0421 42.9232 32.0389 43.44C32.0389 45.0966 33.3824 46.4402 35.0391 46.4402H37.039V47.4399C37.039 48.5445 36.1436 49.4399 35.0391 49.4399H29.0392C27.9346 49.4399 27.0392 48.5445 27.0392 47.4399V35.88C27.0392 35.864 27.03 35.8498 27.03 35.8338C27.0149 35.0487 26.8771 34.2705 26.6212 33.528C26.5031 33.1627 26.3919 32.8528 26.2839 32.5928C28.8492 30.2358 29.81 27.0241 28.4079 25.1587C28.2857 25.0031 28.1392 24.868 27.9739 24.7591C28.2912 24.5526 28.661 24.4419 29.0392 24.44H35.0391Z" fill="black"/>
</g>
<defs>
<clipPath id="clip0_666_632">
<rect width="60" height="60" fill="white" transform="translate(0 0.439941)"/>
</clipPath>
</defs>
</svg>
