<svg width="60" height="61" viewBox="0 0 60 61" fill="none" xmlns="http://www.w3.org/2000/svg">
<g id="bunk-bed_7211492 1">
<path id="Vector" d="M59.1211 7.80658H55.4809C54.9954 7.80658 54.602 8.2001 54.602 8.68549V9.62697H30.5966C30.1111 9.62697 29.7177 10.0205 29.7177 10.5059C29.7177 10.9913 30.1111 11.3848 30.5966 11.3848H54.602V13.2668H5.39766V11.3848H26.7659C27.2514 11.3848 27.6448 10.9913 27.6448 10.5059C27.6448 10.0205 27.2514 9.62697 26.7659 9.62697H16.3186V8.67822C16.3186 6.19045 14.2945 4.1665 11.8069 4.1665H4.51934C4.03383 4.1665 3.64043 4.56002 3.64043 5.04541V7.80705H0.878906C0.393398 7.80705 0 8.20057 0 8.68596V56.0077C0 56.4931 0.393398 56.8866 0.878906 56.8866H4.51875C5.00426 56.8866 5.39766 56.4931 5.39766 56.0077V49.6057H39.0048C39.4903 49.6057 39.8837 49.2122 39.8837 48.7268C39.8837 48.2414 39.4903 47.8479 39.0048 47.8479H5.39766V44.146H54.6021V47.8479H42.8358C42.3503 47.8479 41.9569 48.2414 41.9569 48.7268C41.9569 49.2122 42.3503 49.6057 42.8358 49.6057H54.6021V56.0072C54.6021 56.4926 54.9955 56.8861 55.481 56.8861H59.1211C59.6066 56.8861 60 56.4926 60 56.0072V8.68549C60 8.19998 59.6066 7.80658 59.1211 7.80658ZM45.4395 24.1248H54.5509V26.0072H45.4395V24.1248ZM45.4395 33.2251H54.5509V35.1074H45.4395V33.2251ZM45.4395 31.4673V27.765H54.602V31.4673H45.4395ZM54.602 22.367H45.4395V20.4844H54.602V22.367ZM43.6816 15.0246V42.3877H41.7993V15.0246H43.6816ZM45.4395 36.8652H54.602V38.7481H45.4395V36.8652ZM54.602 18.7265H45.4395V15.0245H54.602V18.7265ZM40.0416 15.0246V18.7266H5.39766V15.0246H40.0416ZM5.39824 5.9242H11.8069C13.3254 5.9242 14.5608 7.15959 14.5608 8.6781V9.6265H5.39824V5.9242ZM3.63984 55.1287H1.75781V9.56475H3.63984V23.5839C3.63984 24.0693 4.03324 24.4628 4.51875 24.4628C5.00426 24.4628 5.39766 24.0693 5.39766 23.5839V20.4843H40.0416V38.7481H16.3186V37.7991C16.3186 35.3113 14.2945 33.2874 11.8069 33.2874H5.39766V27.4149C5.39766 26.9295 5.00426 26.536 4.51875 26.536C4.03324 26.536 3.63984 26.9295 3.63984 27.4149V55.1287ZM5.39824 38.7476V35.0452H11.8069C13.3254 35.0452 14.5608 36.2806 14.5608 37.7991V38.7476H5.39824ZM5.39766 40.5059H40.0416V42.3879H5.39766V40.5059ZM45.4395 42.3879V40.5059H54.5509V42.3879H45.4395ZM58.2422 55.1281H56.3598V9.56439H58.2422V55.1281Z" fill="black"/>
</g>
</svg>
