<svg width="60" height="61" viewBox="0 0 60 61" fill="none" xmlns="http://www.w3.org/2000/svg">
<g id="kitchen_1394043 1" clip-path="url(#clip0_666_38)">
<path id="Vector" d="M37.1184 0.326172H23.1471C22.3947 0.345876 21.7891 0.951518 21.7699 1.7039V8.95034L15.3764 18.2621C15.1011 18.6769 15.0747 19.2089 15.308 19.6491C15.5413 20.0889 15.9966 20.3658 16.4944 20.3704H43.7711C44.2647 20.3595 44.7143 20.0832 44.9461 19.6476C45.1778 19.2115 45.1561 18.6842 44.889 18.2693L38.4956 8.95034V1.7039C38.4764 0.951518 37.8707 0.345876 37.1184 0.326172ZM35.8407 2.98104V8.02529H24.4248V2.98104H35.8407ZM41.2433 17.7156H19.0222L23.8451 10.6802H36.422L41.2433 17.7156Z" fill="black"/>
<path id="Vector_2" d="M12.4945 49.4412H9.55754C8.82434 49.4412 8.2301 50.0354 8.2301 50.7686C8.2301 51.5018 8.82434 52.096 9.55754 52.096H12.4945C13.2277 52.096 13.8219 51.5018 13.8219 50.7686C13.8219 50.0354 13.2277 49.4412 12.4945 49.4412Z" fill="black"/>
<path id="Vector_3" d="M9.55754 37.627H12.4945C13.2277 37.627 13.8219 37.0328 13.8219 36.2996C13.8219 35.5664 13.2277 34.9722 12.4945 34.9722H9.55754C8.82434 34.9722 8.2301 35.5664 8.2301 36.2996C8.2301 37.0328 8.82434 37.627 9.55754 37.627Z" fill="black"/>
<path id="Vector_4" d="M50.708 49.4412H47.771C47.0378 49.4412 46.4436 50.0354 46.4436 50.7686C46.4436 51.5018 47.0378 52.096 47.771 52.096H50.708C51.4412 52.096 52.0354 51.5018 52.0354 50.7686C52.0354 50.0354 51.4412 49.4412 50.708 49.4412Z" fill="black"/>
<path id="Vector_5" d="M47.771 37.627H50.708C51.4412 37.627 52.0354 37.0328 52.0354 36.2996C52.0354 35.5664 51.4412 34.9722 50.708 34.9722H47.771C47.0378 34.9722 46.4436 35.5664 46.4436 36.2996C46.4436 37.0328 47.0378 37.627 47.771 37.627Z" fill="black"/>
<path id="Vector_6" d="M59.469 32.9811C59.469 30.0488 57.0916 27.6714 54.1593 27.6714H5.97346C3.04118 27.6714 0.663727 30.0488 0.663727 32.9811V55.0165C0.663727 57.9488 3.04118 60.3263 5.97346 60.3263H54.1593C57.0916 60.3263 59.469 57.9488 59.469 55.0165V32.9811ZM56.9469 32.9832V42.5386H41.8142V30.3263H54.2557C55.7289 30.3257 56.9282 31.5101 56.9469 32.9832ZM21.1062 30.3263H39.1593V57.6714H21.1062V30.3263ZM6.00976 30.3263H18.4513V42.5386H3.31859V32.9832C3.33726 31.5101 4.53662 30.3257 6.00976 30.3263ZM3.31859 54.9662V45.1935H18.4513V57.6714H6.00976C4.5278 57.6491 3.33363 56.4487 3.31859 54.9662ZM54.2557 57.6714H41.8142V45.1935H56.9469V54.9662C56.9319 56.4487 55.7377 57.6491 54.2557 57.6714Z" fill="black"/>
</g>
<defs>
<clipPath id="clip0_666_38">
<rect width="60" height="60" fill="white" transform="translate(0 0.326172)"/>
</clipPath>
</defs>
</svg>
