<svg width="60" height="61" viewBox="0 0 60 61" fill="none" xmlns="http://www.w3.org/2000/svg">
<g id="Study table" clip-path="url(#clip0_666_312)">
<g id="Group">
<g id="Group_2">
<g id="Group_3">
<path id="Vector" d="M45.1179 26.5362L45.1179 26.5363L45.121 26.5386C45.2376 26.6294 45.3834 26.6839 45.5344 26.6839C45.7234 26.6839 45.9115 26.6025 46.0443 26.4432L46.0443 26.4432L46.0455 26.4418L52.3736 18.7074L52.3742 18.7066C52.6019 18.4254 52.5633 18.0086 52.279 17.7785C51.9979 17.5509 51.5814 17.5894 51.3512 17.8733C51.3511 17.8734 51.351 17.8735 51.3508 17.8737L45.0234 25.6073L45.0234 25.6072L45.0227 25.6081C44.7951 25.8893 44.8337 26.3061 45.1179 26.5362Z" fill="black" stroke="black" stroke-width="0.4"/>
</g>
<g id="Group_4">
<path id="Vector_2" d="M47.2742 26.5361L47.2742 26.5361L47.2772 26.5385C47.3939 26.6292 47.5396 26.6838 47.6907 26.6838C47.8832 26.6838 48.0765 26.6062 48.2041 26.4387L53.883 19.4947L53.8836 19.494C54.1112 19.2128 54.0726 18.7959 53.7884 18.5658C53.5073 18.3383 53.0907 18.3767 52.8606 18.6606C52.8604 18.6608 52.8603 18.6609 52.8602 18.661L47.1796 25.6071L47.1796 25.6071L47.179 25.6079C46.9513 25.8891 46.9899 26.306 47.2742 26.5361Z" fill="black" stroke="black" stroke-width="0.4"/>
</g>
<g id="Group_5">
<path id="Vector_3" d="M45.8617 9.05641L45.8617 9.05642L45.8634 9.05807L52.6595 15.6948C52.783 15.8178 52.9561 15.8837 53.1187 15.8837C53.2922 15.8837 53.4654 15.8168 53.5977 15.6845L53.5977 15.6846L53.6012 15.6809C53.8559 15.4128 53.8413 14.9984 53.5883 14.7454L53.5883 14.7454L53.5866 14.7438L46.7897 8.10627L46.7897 8.10626L46.7877 8.10436C46.5197 7.84975 46.1053 7.86434 45.8523 8.11731L45.8523 8.11727L45.8487 8.12099C45.5941 8.389 45.6087 8.80343 45.8617 9.05641Z" fill="black" stroke="black" stroke-width="0.4"/>
</g>
<g id="Group_6">
<path id="Vector_4" d="M44.6898 10.2378L44.6898 10.2378L44.6915 10.2394L51.2626 16.6606C51.3862 16.7836 51.5592 16.8495 51.7219 16.8495C51.9006 16.8495 52.0596 16.7789 52.1939 16.6569L52.1993 16.6519L52.2044 16.6466C52.459 16.3786 52.4444 15.9642 52.1914 15.7112L52.1914 15.7112L52.1898 15.7096L45.6179 9.28771L45.6179 9.2877L45.6159 9.28576C45.3479 9.03115 44.9334 9.04574 44.6804 9.29871L44.6804 9.29866L44.6769 9.30238C44.4223 9.57039 44.4368 9.98483 44.6898 10.2378Z" fill="black" stroke="black" stroke-width="0.4"/>
</g>
<g id="Group_7">
<path id="Vector_5" d="M39.848 28.8486L39.8479 28.8487L39.8547 28.8532C39.9709 28.9307 40.103 28.9712 40.2375 28.9712C40.4437 28.9712 40.6465 28.8811 40.7725 28.7131L40.7725 28.7131L40.7749 28.7098L42.2244 26.6931H50.4662L51.9157 28.7098L51.9164 28.7107C52.1309 29.0057 52.5464 29.0734 52.8426 28.8579C53.1375 28.6435 53.2052 28.2282 52.9901 27.932C52.9901 27.9319 52.99 27.9318 52.9899 27.9317L51.3414 25.6463C51.22 25.4721 51.0188 25.3649 50.8031 25.3649H41.8875C41.6806 25.3649 41.4755 25.4558 41.3493 25.6369L39.7008 27.9223C39.7007 27.9224 39.7006 27.9225 39.7005 27.9226C39.4854 28.2188 39.5532 28.6341 39.848 28.8486Z" fill="black" stroke="black" stroke-width="0.4"/>
</g>
<g id="Group_8">
<g id="Group_9">
<path id="Vector_6" d="M44.3063 10.3775L44.125 10.462C44.9514 12.2367 44.7047 14.3219 43.531 15.8442L36.2239 8.52814C37.7385 7.36258 39.8318 7.10775 41.6057 7.93361C41.8618 8.05459 42.1583 7.99902 42.3571 7.80021L44.0909 6.06633L46.0012 7.96847L44.2586 9.71112C44.0596 9.9101 44.0041 10.2069 44.1255 10.4632L44.3063 10.3775ZM44.3063 10.3775C44.2219 10.1994 44.2594 9.99316 44.4 9.85254L46.143 8.10959L43.6734 15.9868C44.9062 14.404 45.1681 12.2283 44.3063 10.3775ZM34.7898 8.03299L34.7898 8.03295L34.7863 8.03666C34.5367 8.29931 34.5317 8.71391 34.7898 8.97208L43.0961 17.2783C43.2211 17.4034 43.3954 17.4682 43.5656 17.4682C43.7419 17.4682 43.9009 17.3995 44.0276 17.2856L44.0278 17.2858L44.0356 17.278C45.8511 15.4529 46.424 12.7219 45.5154 10.333L47.1754 8.68184L47.1758 8.68146C47.5633 8.29398 47.5633 7.6611 47.1758 7.27362L44.7956 4.89341C44.4157 4.50294 43.782 4.50649 43.3961 4.89237L41.7355 6.55294C39.3465 5.64419 36.6061 6.2167 34.7898 8.03299Z" fill="black" stroke="black" stroke-width="0.4"/>
</g>
<g id="Group_10">
<path id="Vector_7" d="M38.2172 10.5692C37.9103 10.3957 37.5066 10.4879 37.318 10.8111C36.6626 11.9304 36.8445 13.3612 37.7711 14.2878C38.3248 14.8415 39.0603 15.1339 39.8063 15.1339C40.2983 15.1339 40.8024 15.004 41.2388 14.7315C41.5597 14.5532 41.6648 14.1406 41.4797 13.8311C41.3008 13.5065 40.8948 13.4041 40.5774 13.5893L40.5774 13.5893L40.5766 13.5897C39.9712 13.9463 39.1992 13.8471 38.7008 13.3487C38.2025 12.8504 38.1032 12.0784 38.4599 11.4729L38.4599 11.4729L38.4616 11.4698C38.6379 11.1579 38.5283 10.7584 38.2228 10.5724L38.2228 10.5723L38.2172 10.5692Z" fill="black" stroke="black" stroke-width="0.4"/>
</g>
<g id="Group_11">
<g id="Group_12">
<path id="Vector_8" d="M38.3217 17.2607L38.3327 17.2619H38.3438H38.3439H38.344H38.3441H38.3442H38.3443H38.3444H38.3446H38.3447H38.3448H38.3449H38.345H38.3451H38.3452H38.3453H38.3454H38.3455H38.3457H38.3458H38.3459H38.346H38.3461H38.3462H38.3463H38.3464H38.3465H38.3466H38.3468H38.3469H38.347H38.3471H38.3472H38.3473H38.3474H38.3475H38.3476H38.3477H38.3479H38.348H38.3481H38.3482H38.3483H38.3484H38.3485H38.3486H38.3487H38.3488H38.349H38.3491H38.3492H38.3493H38.3494H38.3495H38.3496H38.3497H38.3498H38.3499H38.3501H38.3502H38.3503H38.3504H38.3505H38.3506H38.3507H38.3508H38.3509H38.351H38.3511H38.3513H38.3514H38.3515H38.3516H38.3517H38.3518H38.3519H38.352H38.3521H38.3522H38.3524H38.3525H38.3526H38.3527H38.3528H38.3529H38.353H38.3531H38.3532H38.3533H38.3535H38.3536H38.3537H38.3538H38.3539H38.354H38.3541H38.3542H38.3543H38.3544H38.3546H38.3547H38.3548H38.3549H38.355H38.3551H38.3552H38.3553H38.3554H38.3555H38.3557H38.3558H38.3559H38.356H38.3561H38.3562H38.3563H38.3564H38.3565H38.3566H38.3568H38.3569H38.357H38.3571H38.3572H38.3573H38.3574H38.3575H38.3576H38.3577H38.3579H38.358H38.3581H38.3582H38.3583H38.3584H38.3585H38.3586H38.3587H38.3588H38.3589H38.3591H38.3592H38.3593H38.3594H38.3595H38.3596H38.3597H38.3598H38.3599H38.36H38.3602H38.3603H38.3604H38.3605H38.3606H38.3607H38.3608H38.3609H38.361H38.3611H38.3613H38.3614H38.3615H38.3616H38.3617H38.3618H38.3619H38.362H38.3621H38.3622H38.3624H38.3625H38.3626H38.3627H38.3628H38.3629H38.363H38.3631H38.3632H38.3633H38.3635H38.3636H38.3637H38.3638H38.3639H38.364H38.3641H38.3642H38.3643H38.3644H38.3646H38.3647H38.3648H38.3649H38.365H38.3651H38.3652H38.3653H38.3654H38.3655H38.3657H38.3658H38.3659H38.366H38.3661H38.3662H38.3663H38.3664H38.3665H38.3666H38.3667H38.3669H38.367H38.3671H38.3672H38.3673H38.3674H38.3675H38.3676H38.3677H38.3678H38.368H38.3681H38.3682H38.3683H38.3684H38.3685H38.3686H38.3687H38.3688H38.3689H38.3691H38.3692H38.3693H38.3694H38.3695H38.3696H38.3697H38.3698H38.3699H38.37H38.3702H38.3703H38.3704H38.3705H38.3706H38.3707H38.3708H38.3709H38.371H38.3711H38.3713H38.3714H38.3715H38.3716H38.3717H38.3718H38.3719H38.372H38.3721H38.3722H38.3724H38.3725H38.3726H38.3727H38.3728H38.3729H38.373H38.3731H38.3732H38.3733H38.3735H38.3736H38.3737H38.3738H38.3739H38.374H38.3741H38.3742H38.3743H38.3744H38.3745H38.3747H38.3748H38.3749H38.375H38.3751H38.3752H38.3753H38.3754H38.3755H38.3756H38.3758H38.3759H38.376H38.3761H38.3762H38.3763H38.3764H38.3765H38.3766H38.3767H38.3769H38.377H38.3771H38.3772H38.3773H38.3774H38.3775H38.3776H38.3777H38.3778H38.378H38.3781H38.3782H38.3783H38.3784H38.3785H38.3786H38.3787H38.3788H38.3789H38.3791H38.3792H38.3793H38.3794H38.3795H38.3796H38.3797H38.3798H38.3799H38.38H38.3802H38.3803H38.3804H38.3805H38.3806H38.3807H38.3808H38.3809H38.381H38.3811H38.3813H38.3814H38.3815H38.3816H38.3817H38.3818H38.3819H38.382H38.3821H38.3822H38.3823H38.3825H38.3826H38.3827H38.3828H38.3829H38.383H38.3831H38.3832H38.3833H38.3834H38.3836H38.3837H38.3838H38.3839H38.384H38.3841H38.3842H38.3843H38.3844H38.3845H38.3847H38.3848H38.3849H38.385H38.3851H38.3852H38.3853H38.3854H38.3855H38.3856H38.3858H38.3859H38.386H38.3861H38.3862H38.3863H38.3864H38.3865H38.3866H38.3867H38.3869H38.387H38.3871H38.3872H38.3873H38.3874H38.3875H38.3876H38.3877H38.3878H38.388H38.3881H38.3882H38.3883H38.3884H38.3885H38.3886H38.3887H38.3888H38.3889H38.3891H38.3892H38.3893H38.3894H38.3895H38.3896H38.3897H38.3898H38.3899H38.39H38.3901H38.3903H38.3904H38.3905H38.3906H38.3907H38.3908H38.3909H38.391H38.3911H38.3912H38.3914H38.3915H38.3916H38.3917H38.3918H38.3919H38.392H38.3921H38.3922H38.3923H38.3925H38.3926H38.3927H38.3928H38.3929H38.393H38.3931H38.3932H38.3933H38.3934H38.3936H38.3937H38.3938H38.3939H38.394H38.3941H38.3942H38.3943H38.3944H38.3945H38.3947H38.3948H38.3949H38.395H38.3951H38.3952H38.3953H38.3954H38.3955H38.3956H38.3958H38.3959H38.396H38.3961H38.3962H38.3963H38.3964H38.3965H38.3966H38.3967H38.3969H38.397H38.3971H38.3972H38.3973H38.3974H38.3975H38.3976H38.3977H38.3978H38.3979H38.3981H38.3982H38.3983H38.3984H38.3985H38.3986H38.3987H38.3988H38.3989H38.399H38.3992H38.3993H38.3994H38.3995H38.3996H38.3997H38.3998H38.3999H38.4C38.727 17.2619 39.0045 17.018 39.0569 16.6904L39.057 16.6904L39.0577 16.6846L39.2359 15.3158L39.2359 15.3158L39.2363 15.3121C39.276 14.955 39.0251 14.6166 38.6565 14.5756C38.3001 14.536 37.9622 14.7859 37.9202 15.1534L37.7423 16.5205L37.7423 16.5205L37.7419 16.5242C37.7022 16.8813 37.9531 17.2197 38.3217 17.2607Z" fill="black" stroke="black" stroke-width="0.4"/>
</g>
<g id="Group_13">
<path id="Vector_9" d="M34.7981 13.7466L34.7981 13.7466L34.7983 13.7483C34.8392 14.0888 35.1358 14.3276 35.4563 14.3276H35.4564H35.4565H35.4566H35.4567H35.4568H35.4569H35.4571H35.4572H35.4573H35.4574H35.4575H35.4576H35.4577H35.4578H35.458H35.4581H35.4582H35.4583H35.4584H35.4585H35.4586H35.4587H35.4589H35.459H35.4591H35.4592H35.4593H35.4594H35.4596H35.4597H35.4598H35.4599H35.46H35.4601H35.4602H35.4604H35.4605H35.4606H35.4607H35.4608H35.461H35.4611H35.4612H35.4613H35.4614H35.4615H35.4617H35.4618H35.4619H35.462H35.4621H35.4623H35.4624H35.4625H35.4626H35.4627H35.4629H35.463H35.4631H35.4632H35.4633H35.4635H35.4636H35.4637H35.4638H35.4639H35.4641H35.4642H35.4643H35.4644H35.4645H35.4647H35.4648H35.4649H35.465H35.4652H35.4653H35.4654H35.4655H35.4656H35.4658H35.4659H35.466H35.4661H35.4663H35.4664H35.4665H35.4666H35.4668H35.4669H35.467H35.4671H35.4673H35.4674H35.4675H35.4676H35.4678H35.4679H35.468H35.4681H35.4683H35.4684H35.4685H35.4686H35.4688H35.4689H35.469H35.4691H35.4693H35.4694H35.4695H35.4696H35.4698H35.4699H35.47H35.4701H35.4703H35.4704H35.4705H35.4706H35.4708H35.4709H35.471H35.4712H35.4713H35.4714H35.4715H35.4717H35.4718H35.4719H35.472H35.4722H35.4723H35.4724H35.4726H35.4727H35.4728H35.4729H35.4731H35.4732H35.4733H35.4734H35.4736H35.4737H35.4738H35.474H35.4741H35.4742H35.4743H35.4745H35.4746H35.4747H35.4749H35.475H35.4751H35.4752H35.4754H35.4755H35.4756H35.4757H35.4759H35.476H35.4761H35.4763H35.4764H35.4765H35.4766H35.4768H35.4769H35.477H35.4772H35.4773H35.4774H35.4775H35.4777H35.4778H35.4779H35.4781H35.4782H35.4783H35.4784H35.4786H35.4787H35.4788H35.479H35.4791H35.4792H35.4793H35.4795H35.4796H35.4797H35.4798H35.48H35.4801H35.4802H35.4804H35.4805H35.4806H35.4807H35.4809H35.481H35.4811H35.4813H35.4814H35.4815H35.4816H35.4818H35.4819H35.482H35.4821H35.4823H35.4824H35.4825H35.4827H35.4828H35.4829H35.483H35.4832H35.4833H35.4834H35.4835H35.4837H35.4838H35.4839H35.484H35.4842H35.4843H35.4844H35.4845H35.4847H35.4848H35.4849H35.4851H35.4852H35.4853H35.4854H35.4856H35.4857H35.4858H35.4859H35.4861H35.4862H35.4863H35.4864H35.4866H35.4867H35.4868H35.4869H35.4871H35.4872H35.4873H35.4874H35.4876H35.4877H35.4878H35.4879H35.488H35.4882H35.4883H35.4884H35.4885H35.4887H35.4888H35.4889H35.489H35.4892H35.4893H35.4894H35.4895H35.4896H35.4898H35.4899H35.49H35.4901H35.4902H35.4904H35.4905H35.4906H35.4907H35.4909H35.491H35.4911H35.4912H35.4913H35.4915H35.4916H35.4917H35.4918H35.4919H35.4921H35.4922H35.4923H35.4924H35.4925H35.4926H35.4928H35.4929H35.493H35.4931H35.4932H35.4934H35.4935H35.4936H35.4937H35.4938H35.4939H35.4941H35.4942H35.4943H35.4944H35.4945H35.4946H35.4948H35.4949H35.495H35.4951H35.4952H35.4953H35.4954H35.4956H35.4957H35.4958H35.4959H35.496H35.4961H35.4962H35.4964H35.4965H35.4966H35.4967H35.4968H35.4969H35.497H35.4971H35.4972H35.4974H35.4975H35.4976H35.4977H35.4978H35.4979H35.498H35.4981H35.4982H35.4983H35.4985H35.4986H35.4987H35.4988H35.4989H35.499H35.4991H35.4992H35.4993H35.4994H35.4995H35.4996H35.4997H35.4999H35.5H35.5001H35.5002H35.5003H35.5004H35.5005H35.5006H35.5007H35.5008H35.5009H35.501H35.5011H35.5012H35.5013H35.5014H35.5015H35.5016H35.5017H35.5018H35.5019H35.502H35.5021H35.5022H35.5023H35.5024H35.5025H35.5026H35.5027H35.5028H35.5029H35.503H35.5031H35.5032H35.5033H35.5034H35.5035H35.5036H35.5037H35.5038H35.5039H35.504H35.5041H35.5042H35.5043H35.5044H35.5045H35.5045H35.5046H35.5047H35.5048H35.5049H35.505H35.5051H35.5052H35.5053H35.5054H35.5055H35.5056H35.5056H35.5057H35.5058H35.5059H35.506H35.5061H35.5062H35.5063H35.5064H35.5064H35.5065H35.5066H35.5067H35.5068H35.5069H35.507H35.507H35.5071H35.5072H35.5073H35.5074H35.5075H35.5075H35.5076H35.5077H35.5078H35.5079H35.508H35.508H35.5081H35.5082H35.5083H35.5084H35.5084H35.5085H35.5086H35.5087H35.5087H35.5088H35.5089H35.509H35.509H35.5091H35.5092H35.5093H35.5093H35.5094H35.5095H35.5096H35.5096H35.5097H35.5098H35.5099H35.5099H35.51H35.5101H35.5101H35.5102H35.5103H35.5104H35.5104H35.5105H35.5106H35.5106H35.5107H35.5108H35.5108H35.5109H35.511H35.511H35.5111H35.5112H35.5112H35.5113H35.5113H35.5114H35.5115H35.5115H35.5116H35.5117H35.5117H35.5118H35.5118H35.5119H35.512H35.512H35.5121H35.5121H35.5122H35.5123H35.5123H35.5124H35.5124H35.5125H35.5125H35.5255L35.5383 14.326L36.9054 14.148C37.2729 14.1061 37.5228 13.7682 37.4832 13.4118C37.4422 13.0431 37.1038 12.7923 36.7467 12.832L36.7467 12.8319L36.743 12.8324L35.3759 13.0103C35.0084 13.0523 34.7585 13.3902 34.7981 13.7466Z" fill="black" stroke="black" stroke-width="0.4"/>
</g>
<g id="Group_14">
<path id="Vector_10" d="M36.4586 15.6096L36.4584 15.6098L36.4662 15.6169C36.5928 15.7308 36.7519 15.7995 36.9281 15.7995C37.1044 15.7995 37.2634 15.7308 37.3901 15.6169L37.3903 15.6171L37.3977 15.6096L38.0446 14.9628L38.0446 14.9628L38.0481 14.9591C38.2977 14.6964 38.3027 14.2818 38.0446 14.0237L38.0446 14.0236L38.0409 14.0201C37.7782 13.7706 37.3636 13.7655 37.1055 14.0237L36.4586 14.6705L36.4586 14.6705L36.455 14.6742C36.2055 14.9369 36.2004 15.3515 36.4586 15.6096Z" fill="black" stroke="black" stroke-width="0.4"/>
</g>
</g>
</g>
<g id="Group_15">
<path id="Vector_11" d="M50.8094 17.1368C50.8094 18.5691 51.9771 19.7368 53.4094 19.7368C54.8516 19.7368 56.0094 18.5686 56.0094 17.1368C56.0094 15.7045 54.8417 14.5368 53.4094 14.5368C51.9771 14.5368 50.8094 15.7045 50.8094 17.1368ZM52.1281 17.1368C52.1281 16.4316 52.7042 15.8556 53.4094 15.8556C54.1146 15.8556 54.6906 16.4316 54.6906 17.1368C54.6906 17.842 54.1146 18.4181 53.4094 18.4181C52.7042 18.4181 52.1281 17.842 52.1281 17.1368Z" fill="black" stroke="black" stroke-width="0.4"/>
</g>
</g>
<g id="Group_16">
<g id="Group_17">
<g id="Group_18">
<g id="Group_19">
<path id="Vector_12" d="M1.73438 33.387H58.2656C59.3323 33.387 60.2 32.5193 60.2 31.4526V29.5776C60.2 28.5109 59.3323 27.6433 58.2656 27.6433H1.73438C0.667668 27.6433 -0.2 28.5109 -0.2 29.5776V31.4526C-0.2 32.5193 0.667668 33.387 1.73438 33.387ZM1.11875 29.587C1.11875 29.2475 1.39483 28.9714 1.73438 28.9714H58.2656C58.6145 28.9714 58.8812 29.2381 58.8812 29.587V31.462C58.8812 31.7922 58.5958 32.0776 58.2656 32.0776H1.73438C1.39483 32.0776 1.11875 31.8016 1.11875 31.462V29.587Z" fill="black" stroke="black" stroke-width="0.4"/>
</g>
</g>
<g id="Group_20">
<g id="Group_21">
<path id="Vector_13" d="M3.65624 56.2807H7.01249C7.37618 56.2807 7.67379 55.9839 7.66249 55.6086V32.7182C7.66249 32.3546 7.3667 32.0588 7.00312 32.0588C6.63953 32.0588 6.34374 32.3546 6.34374 32.7182V54.9525H4.31562V32.7182C4.31562 32.3546 4.01983 32.0588 3.65624 32.0588C3.29266 32.0588 2.99687 32.3546 2.99687 32.7182V55.6213C2.99687 55.9849 3.29266 56.2807 3.65624 56.2807Z" fill="black" stroke="black" stroke-width="0.4"/>
</g>
<g id="Group_22">
<path id="Vector_14" d="M52.9875 56.2807H56.3438C56.7074 56.2807 57.0051 55.9839 56.9938 55.6086V32.7182C56.9938 32.3546 56.698 32.0588 56.3344 32.0588C55.9708 32.0588 55.675 32.3546 55.675 32.7182V54.9525H53.6469V32.7182C53.6469 32.3546 53.3511 32.0588 52.9875 32.0588C52.6239 32.0588 52.3281 32.3546 52.3281 32.7182V55.6213C52.3281 55.9849 52.6239 56.2807 52.9875 56.2807Z" fill="black" stroke="black" stroke-width="0.4"/>
</g>
</g>
</g>
<g id="Group_23">
<path id="Vector_15" d="M7.41836 28.6492L7.41839 28.6492L7.42013 28.6462C7.99572 27.6479 8.14625 26.6285 7.85148 25.615H18.4594C19.0239 25.615 19.4781 26.0692 19.4781 26.6338C19.4781 27.1983 19.0239 27.6525 18.4594 27.6525C18.0958 27.6525 17.8 27.9483 17.8 28.3119C17.8 28.6755 18.0958 28.9713 18.4594 28.9713C19.7511 28.9713 20.8062 27.9161 20.8062 26.6244C20.8062 25.3327 19.7511 24.2775 18.4594 24.2775H6.85311C6.60802 24.2775 6.39576 24.4136 6.27849 24.609C6.15652 24.8123 6.15612 25.0685 6.27728 25.2722C6.54387 25.7392 6.67186 26.1876 6.67186 26.6279C6.67186 27.0681 6.54396 27.5138 6.27781 27.9758C6.08803 28.2903 6.20102 28.6917 6.51537 28.8769C6.62611 28.9453 6.74737 28.9713 6.85311 28.9713C7.07176 28.9713 7.29702 28.8514 7.41836 28.6492Z" fill="black" stroke="black" stroke-width="0.4"/>
</g>
<g id="Group_24">
<path id="Vector_16" d="M5.10001 25.6058H16.7063C17.9974 25.6058 19.0531 24.5606 19.0531 23.2589C19.0531 21.9672 17.998 20.9121 16.7063 20.9121H5.10001C4.85492 20.9121 4.64266 21.0481 4.52539 21.2435C4.40342 21.4468 4.40301 21.7031 4.52418 21.9067C4.79076 22.3737 4.91876 22.8221 4.91876 23.2625C4.91876 23.7028 4.79076 24.1487 4.52441 24.6108C4.40349 24.8137 4.40334 25.0689 4.52394 25.2719C4.64498 25.4851 4.8619 25.6058 5.10001 25.6058ZM16.7063 24.2871H6.0982C6.2961 23.6068 6.29654 22.9246 6.09897 22.2496H16.7063C17.2708 22.2496 17.725 22.7038 17.725 23.2683C17.725 23.8329 17.2708 24.2871 16.7063 24.2871Z" fill="black" stroke="black" stroke-width="0.4"/>
</g>
<g id="Group_25">
<path id="Vector_17" d="M6.24374 18.8839H17.85C18.0951 18.8839 18.3073 18.7479 18.4246 18.5524C18.5466 18.3491 18.547 18.0929 18.4258 17.8893C18.1592 17.4222 18.0312 16.9738 18.0312 16.5335C18.0312 16.0932 18.1592 15.6473 18.4256 15.1852C18.5465 14.9823 18.5467 14.7271 18.4261 14.524C18.305 14.3109 18.0881 14.1901 17.85 14.1901H6.24374C4.95203 14.1901 3.89686 15.2453 3.89686 16.537C3.89686 17.8287 4.95203 18.8839 6.24374 18.8839ZM5.22499 16.537C5.22499 15.9725 5.67919 15.5183 6.24374 15.5183H16.851C16.6535 16.1933 16.6539 16.8755 16.8518 17.5558H6.24374C5.67919 17.5558 5.22499 17.1016 5.22499 16.537Z" fill="black" stroke="black" stroke-width="0.4"/>
</g>
<g id="Group_26">
<path id="Vector_18" d="M6.94687 22.2401H18.5531C19.8443 22.2401 20.9 21.1949 20.9 19.8932C20.9 18.6015 19.8448 17.5463 18.5531 17.5463H6.94687C6.70178 17.5463 6.48952 17.6824 6.37225 17.8778C6.25028 18.0811 6.24988 18.3373 6.37105 18.541C6.63763 19.008 6.76563 19.4564 6.76563 19.8967C6.76563 20.3371 6.63763 20.783 6.37128 21.2451C6.25036 21.448 6.2502 21.7032 6.3708 21.9062C6.49184 22.1194 6.70876 22.2401 6.94687 22.2401ZM18.5531 20.9213H7.94506C8.14296 20.241 8.1434 19.5589 7.94583 18.8838H18.5531C19.1177 18.8838 19.5719 19.338 19.5719 19.9026C19.5719 20.4671 19.1177 20.9213 18.5531 20.9213Z" fill="black" stroke="black" stroke-width="0.4"/>
</g>
</g>
<g id="Group_27">
<path id="Vector_19" d="M25.9313 28.9712H30.3844C31.5636 28.9712 32.525 28.0098 32.525 26.8306V20.3524C32.525 19.9889 32.2292 19.6931 31.8656 19.6931H24.45C24.0864 19.6931 23.7906 19.9889 23.7906 20.3524V26.8306C23.7906 28.0098 24.752 28.9712 25.9313 28.9712ZM25.1094 26.8212V21.0024H31.2063V26.8212C31.2063 27.2732 30.8364 27.6431 30.3844 27.6431H25.9313C25.4792 27.6431 25.1094 27.2732 25.1094 26.8212Z" fill="black" stroke="black" stroke-width="0.4"/>
</g>
<g id="Group_28">
<path id="Vector_20" d="M32.1188 21.6839L32.227 21.8521C32.5549 21.641 32.8903 21.4885 33.1914 21.4056C33.497 21.3215 33.7463 21.3146 33.9142 21.3682L33.9168 21.369C34.0587 21.4122 34.171 21.5163 34.2585 21.7312L34.2587 21.7316C34.3697 22.0027 34.4051 22.2463 34.3813 22.4787C34.3574 22.7124 34.2724 22.9465 34.1259 23.1964C33.8281 23.7042 33.2966 24.2452 32.5792 24.9437L32.579 24.9439C32.1858 25.3278 31.7693 25.7348 31.3711 26.1709L31.371 26.1709L31.3669 26.1756C31.1299 26.4521 31.1526 26.864 31.4186 27.1072C31.5462 27.2325 31.7111 27.2839 31.8656 27.2839C32.0481 27.2839 32.2281 27.2166 32.3639 27.0552C32.7329 26.6403 33.1303 26.2521 33.5052 25.8865L33.5216 25.8706C34.1996 25.2111 34.8854 24.5439 35.3043 23.8078C35.735 23.051 35.8885 22.2134 35.4916 21.2338L35.4915 21.2334C35.2656 20.6791 34.8582 20.2759 34.3168 20.1058C33.7325 19.9182 33.1142 20.0286 32.6137 20.2011C32.1097 20.3748 31.6985 20.6208 31.5151 20.7367L31.5151 20.7367L31.5126 20.7383C31.2087 20.9365 31.11 21.3402 31.3137 21.6525C31.5119 21.9564 31.9157 22.0551 32.228 21.8514L32.1188 21.6839ZM32.1188 21.6839C32.8031 21.2433 33.5344 21.037 33.975 21.1777L31.6219 20.9058C31.4063 21.0464 31.3406 21.3277 31.4813 21.5433C31.6219 21.7589 31.9031 21.8245 32.1188 21.6839Z" fill="black" stroke="black" stroke-width="0.4"/>
</g>
</g>
</g>
<defs>
<clipPath id="clip0_666_312">
<rect width="60" height="60" fill="white" transform="translate(0 0.439941)"/>
</clipPath>
</defs>
</svg>
