<svg width="60" height="61" viewBox="0 0 60 61" fill="none" xmlns="http://www.w3.org/2000/svg">
<g id="pooja 1" clip-path="url(#clip0_666_74)">
<g id="g1191">
<g id="g1193">
<g id="Clip path group">
<mask id="mask0_666_74" style="mask-type:luminance" maskUnits="userSpaceOnUse" x="0" y="0" width="60" height="61">
<g id="clipPath1199">
<path id="path1197" d="M0 0.526371H60V60.5264H0V0.526371Z" fill="white"/>
</g>
</mask>
<g mask="url(#mask0_666_74)">
<g id="g1195">
<g id="g1201">
<path id="path1203" d="M53.4374 52.8194V56.1318C53.4374 58.0734 51.8634 59.6475 49.9218 59.6475H10.0781C8.1365 59.6475 6.56244 58.0734 6.56244 56.1318V52.8095" stroke="black" stroke-width="1.7" stroke-miterlimit="10" stroke-linecap="round" stroke-linejoin="round"/>
</g>
<g id="g1205">
<path id="path1207" d="M24.7496 47.9197C24.2673 45.4259 24.0818 42.8893 24.1931 40.3625" stroke="black" stroke-width="1.7" stroke-miterlimit="10" stroke-linecap="round" stroke-linejoin="round"/>
</g>
<g id="g1209">
<path id="path1211" d="M35.8068 40.3627C35.9181 42.8895 35.7327 45.4262 35.2502 47.9199" stroke="black" stroke-width="1.7" stroke-miterlimit="10" stroke-linecap="round" stroke-linejoin="round"/>
</g>
<g id="g1213">
<path id="path1215" d="M41.7187 35.6802V36.7563C41.7187 38.6979 40.1446 40.272 38.2031 40.272H21.7968C19.8553 40.272 18.2812 38.6979 18.2812 36.7563V35.7251" stroke="black" stroke-width="1.7" stroke-miterlimit="10" stroke-linecap="round" stroke-linejoin="round"/>
</g>
<g id="g1217">
<path id="path1219" d="M27.0935 30.8303C26.3078 26.7692 26.3097 22.5943 27.0987 18.5336" stroke="black" stroke-width="1.7" stroke-miterlimit="10" stroke-linecap="round" stroke-linejoin="round"/>
</g>
<g id="g1221">
<path id="path1223" d="M32.9012 18.5341C33.6902 22.5946 33.6921 26.7693 32.9065 30.8303" stroke="black" stroke-width="1.7" stroke-miterlimit="10" stroke-linecap="round" stroke-linejoin="round"/>
</g>
<g id="g1225">
<path id="path1227" d="M33.2155 13.7605C34.0343 12.8326 34.6875 11.6475 34.6875 10.2278C34.6875 6.42433 31.0087 1.40519 30 1.40519C28.9911 1.40519 25.3125 6.42433 25.3125 10.2278C25.3125 11.6376 25.9567 12.8162 26.7674 13.7412" stroke="black" stroke-width="1.7" stroke-miterlimit="10" stroke-linecap="round" stroke-linejoin="round"/>
</g>
<g id="g1229">
<path id="path1231" d="M22.9687 16.1511C22.9687 14.8567 24.018 13.8074 25.3124 13.8074H34.6874C35.9819 13.8074 37.0312 14.8567 37.0312 16.1511C37.0312 17.4455 35.9819 18.4949 34.6874 18.4949H25.3124C24.018 18.4949 22.9687 17.4455 22.9687 16.1511Z" stroke="black" stroke-width="1.7" stroke-miterlimit="10" stroke-linecap="round" stroke-linejoin="round"/>
</g>
<g id="g1233">
<path id="path1235" d="M21.4856 30.8628C22.3095 29.933 22.9687 28.7436 22.9687 27.3173C22.9687 23.514 19.2901 18.4947 18.2812 18.4947C17.2723 18.4947 13.5937 23.514 13.5937 27.3173C13.5937 28.7362 14.2462 29.9207 15.0642 30.8484" stroke="black" stroke-width="1.7" stroke-miterlimit="10" stroke-linecap="round" stroke-linejoin="round"/>
</g>
<g id="g1237">
<path id="path1239" d="M37.0415 27.6248C37.1269 28.8991 37.7349 29.9734 38.4857 30.8303" stroke="black" stroke-width="1.7" stroke-miterlimit="10" stroke-linecap="round" stroke-linejoin="round"/>
<path id="Vector 5" d="M37 27.5264C37 24.5264 39 21.8597 39 21.5264" stroke="black" stroke-width="1.6" stroke-linecap="round"/>
</g>
<g id="g1241">
<path id="path1243" d="M44.923 30.8628C45.747 29.933 46.4062 28.7436 46.4062 27.3173C46.4062 23.514 42.7275 18.4947 41.7187 18.4947C40.9809 18.4947 38.815 21.1794 37.7045 24.1096" stroke="black" stroke-width="1.7" stroke-miterlimit="10" stroke-linecap="round" stroke-linejoin="round"/>
</g>
<g id="g1245">
<path id="path1247" d="M11.2499 33.2405C11.2499 31.946 12.2992 30.8967 13.5937 30.8967H46.4062C47.7006 30.8967 48.7499 31.946 48.7499 33.2405C48.7499 34.5348 47.7006 35.5842 46.4062 35.5842H13.5937C12.2992 35.5842 11.2499 34.5348 11.2499 33.2405Z" stroke="black" stroke-width="1.7" stroke-miterlimit="10" stroke-linecap="round" stroke-linejoin="round"/>
</g>
<g id="g1249">
<path id="path1251" d="M56.6418 47.9524C57.4658 47.0226 58.1249 45.8332 58.1249 44.4069C58.1249 40.6036 54.4463 35.5843 53.4374 35.5843C52.4286 35.5843 48.7499 40.6036 48.7499 44.4069C48.7499 45.8206 49.3978 47.0019 50.2116 47.928" stroke="black" stroke-width="1.7" stroke-miterlimit="10" stroke-linecap="round" stroke-linejoin="round"/>
</g>
<g id="g1253">
<path id="path1255" d="M9.81305 47.8997C10.6153 46.9777 11.25 45.8062 11.25 44.4068C11.25 40.6034 7.57137 35.5843 6.5625 35.5843C5.55363 35.5843 1.875 40.6034 1.875 44.4068C1.875 45.7932 2.49797 46.9561 3.28957 47.874" stroke="black" stroke-width="1.7" stroke-miterlimit="10" stroke-linecap="round" stroke-linejoin="round"/>
</g>
<g id="g1257">
<path id="path1259" d="M31.5 52.6738H3.22259C1.92814 52.6738 0.878845 51.6245 0.878845 50.3301C0.878845 49.0357 1.92814 47.9863 3.22259 47.9863H56.7773C58.0717 47.9863 59.121 49.0357 59.121 50.3301C59.121 51.6245 58.0717 52.6738 56.7773 52.6738H26.8808" stroke="black" stroke-width="1.7" stroke-miterlimit="10" stroke-linecap="round" stroke-linejoin="round"/>
</g>
</g>
</g>
</g>
</g>
</g>
</g>
<defs>
<clipPath id="clip0_666_74">
<rect width="60" height="60" fill="white" transform="translate(0 0.526367)"/>
</clipPath>
</defs>
</svg>
