<svg width="60" height="61" viewBox="0 0 60 61" fill="none" xmlns="http://www.w3.org/2000/svg">
<g id="ceiling-lamp_2710528 1">
<g id="Ceiling,-decor,-furnishing,-furniture,-lamp,-light,-lighting-icon-1">
<path id="Shape" d="M45 6.68994V9.18994L41.1612 9.1912C40.5682 13.3324 37.0756 16.5378 32.8062 16.6847L32.5 16.6899H31.249L31.25 44.8149C31.25 48.6119 34.328 51.6899 38.125 51.6899C41.8293 51.6899 44.8494 48.7602 44.9945 45.0914L45 44.8149L44.999 44.1899H37.2252L40.2252 29.1899H52.2747L55.2747 44.1899H47.499L47.5 44.8149C47.5 49.9926 43.3026 54.1899 38.125 54.1899C34.6512 54.1899 31.6187 52.3006 29.999 49.4935C28.3812 52.3006 25.3488 54.1899 21.875 54.1899C16.7988 54.1899 12.665 50.1556 12.5048 45.1184L12.5 44.8149L12.499 44.1899H4.72522L7.72522 29.1899H19.7747L22.7747 44.1899H14.999L15 44.8149L15.0054 45.0914C15.1505 48.7602 18.1706 51.6899 21.875 51.6899C25.5793 51.6899 28.5994 48.7602 28.7445 45.0914L28.75 44.8149L28.749 16.6899H27.5C23.0923 16.6899 19.4458 13.431 18.8388 9.1912L15 9.18994V6.68994H45ZM17.725 31.6899H9.77372L7.77372 41.6899H19.725L17.725 31.6899ZM50.225 31.6899H42.2737L40.2737 41.6899H52.225L50.225 31.6899ZM38.6225 9.18994H21.3762L21.3904 9.26366C21.9596 11.9033 24.1961 13.9229 26.9429 14.1655L27.2289 14.1842L27.5 14.1899H32.5C35.4009 14.1899 37.8402 12.2136 38.5449 9.53392L38.6095 9.26366L38.6225 9.18994Z" fill="black"/>
</g>
</g>
</svg>
