<svg width="60" height="60" viewBox="0 0 60 60" fill="none" xmlns="http://www.w3.org/2000/svg">
<g id="5 year" clip-path="url(#clip0_666_390)">
<path id="Vector" d="M27.1503 50.0295L29.2978 44.3894H29.5338L31.6695 50.0295" stroke="black" stroke-width="0.943953" stroke-linecap="round" stroke-linejoin="round"/>
<path id="Vector_2" d="M27.8229 48.6254H31.0087" stroke="black" stroke-width="0.943953" stroke-linecap="round" stroke-linejoin="round"/>
<path id="Vector_3" d="M23.3392 44.3894H20.9557V50.0531H23.3392" stroke="black" stroke-width="0.943953" stroke-linecap="round" stroke-linejoin="round"/>
<path id="Vector_4" d="M23.1621 47.2212H21.2742" stroke="black" stroke-width="0.943953" stroke-linecap="round" stroke-linejoin="round"/>
<path id="Vector_5" d="M13.4394 44.4248L15.2683 47.2213L17.0736 44.4484" stroke="black" stroke-width="0.943953" stroke-linecap="square" stroke-linejoin="round"/>
<path id="Vector_6" d="M15.2565 50.1356L15.2683 47.2212" stroke="black" stroke-width="0.943953" stroke-linecap="square" stroke-linejoin="round"/>
<path id="Vector_7" d="M36.4955 47.7404L38.3716 49.9586" stroke="black" stroke-width="0.943953" stroke-linecap="round" stroke-linejoin="round"/>
<path id="Vector_8" d="M35.6695 47.3746H36.9793C37.8288 47.3746 38.5486 46.702 38.5486 45.8878C38.5486 45.0737 37.8288 44.4011 36.9793 44.4011H35.4572V50.112" stroke="black" stroke-width="0.943953" stroke-linecap="round" stroke-linejoin="round"/>
<path id="Vector_9" d="M45.9586 45.0973C45.9586 45.0973 44.9321 44.2359 43.7285 44.6017C42.6194 44.9321 42.466 46.2182 43.2683 46.7374C43.2683 46.7374 44.0589 47.0914 44.9321 47.41C47.0324 48.1887 46.1238 50.2182 44.4365 50.2182C42.7492 50.2182 42.879 49.8525 42.4424 49.3687" stroke="black" stroke-width="0.943953" stroke-linecap="round" stroke-linejoin="round"/>
<path id="Vector_10" d="M8.55446 47.4808H0.471863V48.3658L3.62231 53.4985L0.471863 58.6431V59.528H15.6341V54.2183" stroke="black" stroke-width="0.943953" stroke-miterlimit="22.9"/>
<path id="Vector_11" d="M51.0324 54.2182H8.5545M51.0324 54.2182V40.4011H8.5545V54.2182M51.0324 54.2182L43.9527 59.528M8.5545 54.2182L15.6342 59.528" stroke="black" stroke-width="0.943953" stroke-miterlimit="22.9"/>
<path id="Vector_12" d="M7.5515 0C7.5515 3.41003 10.3362 6.19469 13.7462 6.19469C10.3362 6.19469 7.5515 8.97935 7.5515 12.3894C7.5515 8.97935 4.76684 6.19469 1.35681 6.19469C4.76684 6.19469 7.5515 3.41003 7.5515 0Z" stroke="black" stroke-width="0.943953" stroke-miterlimit="22.9"/>
<path id="Vector_13" d="M52.0353 0C52.0353 3.41003 49.2507 6.19469 45.8406 6.19469C49.2507 6.19469 52.0353 8.97935 52.0353 12.3894C52.0353 8.97935 54.82 6.19469 58.23 6.19469C54.82 6.19469 52.0353 3.41003 52.0353 0Z" stroke="black" stroke-width="0.943953" stroke-miterlimit="22.9"/>
<path id="Vector_14" d="M35.4925 15.4927H26.8789L25.699 22.5959H29.227C32.2949 22.5959 34.7609 25.1682 34.5958 28.2596C34.4542 31.0561 32.1297 33.3452 29.3332 33.3452C26.5368 33.3452 24.2241 31.0443 24.0707 28.2596" stroke="black" stroke-width="1.41593" stroke-miterlimit="3"/>
<path id="Vector_15" d="M51.1031 47.4808H59.1857V48.3658L56.0235 53.4985L59.1857 58.6313V59.5162H54.761M55.3509 59.528H44.0235V54.2183" stroke="black" stroke-width="0.943953" stroke-miterlimit="22.9"/>
<path id="Vector_16" d="M18.4424 40.4012C13.1444 36.767 9.67542 30.6667 9.67542 23.7523C9.67542 21.6874 9.9822 19.7051 10.5604 17.829C10.9498 16.5428 12.0943 13.2744 14.9616 10.1357C15.5633 9.47498 16.1179 8.95581 16.5191 8.60183M16.2477 8.84961C19.8347 5.56938 24.6135 3.56348 29.8642 3.56348C41.0146 3.56348 50.053 12.6018 50.053 23.7523C50.053 34.9027 46.584 36.7552 41.286 40.4012M29.8642 7.1033C39.0559 7.1033 46.5132 14.5605 46.5132 23.7523C46.5132 32.944 39.0559 40.4012 29.8642 40.4012C20.6725 40.4012 13.2152 32.944 13.2152 23.7523C13.2152 14.5605 20.6607 7.1033 29.8642 7.1033Z" stroke="black" stroke-width="0.943953" stroke-miterlimit="22.9"/>
</g>
<defs>
<clipPath id="clip0_666_390">
<rect width="59.6578" height="60" fill="white"/>
</clipPath>
</defs>
</svg>
