<svg width="74" height="60" viewBox="0 0 74 60" fill="none" xmlns="http://www.w3.org/2000/svg">
<g id="Delivery" clip-path="url(#clip0_666_384)">
<path id="Vector" d="M59.2884 60C55.7049 60 51.9943 57.6738 51.7775 52.4742L51.7177 51.042H21.8329L21.7731 52.4757C21.5593 57.6738 17.8457 60 14.2607 60C10.6757 60 6.96666 57.6738 6.74989 52.4742L6.69009 51.042H0V0H46.5376V13.5073H64.2308L73.5536 29.8221V51.0405H66.8605L66.8022 52.4742C66.5884 57.6723 62.8749 59.9985 59.2899 59.9985L59.2884 60ZM59.2899 46.5615C56.4315 46.5615 53.4549 48.5917 53.2935 52.4742V52.5056V52.537C53.2935 55.8439 55.9845 58.5349 59.2914 58.5349C62.5983 58.5349 65.2893 55.8439 65.2893 52.537V52.4757C65.1278 48.5947 62.1498 46.563 59.2914 46.563L59.2899 46.5615ZM14.2637 46.5615C11.4053 46.5615 8.42876 48.5917 8.2673 52.4742V52.5056V52.537C8.2673 55.8439 10.9583 58.5349 14.2652 58.5349C17.5721 58.5349 20.2631 55.8439 20.2631 52.537V52.4757C20.1017 48.5947 17.1236 46.563 14.2652 46.563L14.2637 46.5615ZM59.2899 45.0501C62.0272 45.0501 64.4551 46.4419 65.7841 48.7741L66.2147 49.5291H72.0407V30.7804H46.5376V49.5291H52.3636L52.7941 48.7741C54.1232 46.4419 56.5525 45.0501 59.2899 45.0501ZM14.2637 45.0501C17.001 45.0501 19.4289 46.4419 20.758 48.7741L21.1885 49.5291H45.0247V1.51293H1.51293V49.5291H7.33891L7.76947 48.7741C9.09852 46.4419 11.5279 45.0501 14.2652 45.0501H14.2637ZM46.5376 29.266H71.4935L63.3533 15.0202H46.5376V29.266Z" fill="black"/>
<path id="Vector_2" d="M19.0089 26.0787L21.7566 24.7048V19.9133H23.2696V25.6391L19.6861 27.4316L19.0089 26.0787Z" fill="black"/>
<path id="Vector_3" d="M22.5132 38.1507C18.8833 38.1507 15.4762 36.8934 12.9183 34.6106C10.0539 32.0541 8.43931 28.3645 8.24945 23.9363C8.2659 16.0846 14.6585 9.70251 22.5132 9.70251C30.3679 9.70251 36.7604 16.0846 36.7769 23.9363C36.587 28.363 34.9739 32.0526 32.1095 34.6106C29.5516 36.8934 26.1445 38.1507 22.5132 38.1507ZM22.5132 11.2752C16.6244 11.2752 10.1227 15.228 9.76388 23.9064V23.9378V23.9692C9.76388 31.0002 15.4837 36.72 22.5147 36.72C29.5456 36.72 35.2654 31.0002 35.2654 23.9692V23.9079C34.9066 15.2295 28.4034 11.2767 22.5132 11.2767V11.2752Z" fill="black"/>
</g>
<defs>
<clipPath id="clip0_666_384">
<rect width="73.5536" height="60" fill="white"/>
</clipPath>
</defs>
</svg>
