<svg width="80" height="50" viewBox="0 0 80 50" fill="none" xmlns="http://www.w3.org/2000/svg">
<g id="Eye" clip-path="url(#clip0_666_409)">
<path id="Vector" d="M0.522217 25.5466C0.522217 25.5466 37.2909 -29.3941 79.4763 25.5466" stroke="black" stroke-width="1.25823" stroke-miterlimit="10"/>
<path id="Vector_2" d="M79.4763 24.6156C79.4763 24.6156 42.7076 79.5563 0.522217 24.6156" stroke="black" stroke-width="1.25823" stroke-miterlimit="10"/>
<path id="Vector_3" d="M23.0351 24.6156C23.0351 24.6156 22.7363 8.69899 39.9961 7.11047C39.9961 7.11047 55.5872 7.56973 56.9649 24.6156C56.9649 24.6156 56.2619 39.716 39.9961 41.0497C39.9961 41.0497 25.0719 40.7383 23.0351 24.6156Z" stroke="black" stroke-width="1.25823" stroke-linecap="round" stroke-linejoin="round"/>
<g id="Group">
<path id="Vector_4" d="M33.1293 15.9574H46.2479" stroke="black" stroke-width="1.25823" stroke-linecap="round" stroke-linejoin="round"/>
<path id="Vector_5" d="M39.3936 16.0753C39.3936 16.0753 42.8741 17.6277 42.4448 20.8409" stroke="black" stroke-width="1.25823" stroke-linecap="round" stroke-linejoin="round"/>
<path id="Vector_6" d="M42.4825 21.1617C42.4825 21.1617 41.9635 27.747 34.2002 26.4086" stroke="black" stroke-width="1.25823" stroke-linecap="round" stroke-linejoin="round"/>
<path id="Vector_7" d="M33.9769 26.3551L42.9544 35.136" stroke="black" stroke-width="1.25823" stroke-linecap="round" stroke-linejoin="round"/>
<path id="Vector_8" d="M33.1292 20.8409H46.2478" stroke="black" stroke-width="1.25823" stroke-linecap="round" stroke-linejoin="round"/>
</g>
</g>
<defs>
<clipPath id="clip0_666_409">
<rect width="80" height="49.1623" fill="white" transform="translate(0 0.5)"/>
</clipPath>
</defs>
</svg>
